<mxfile host="app.diagrams.net" modified="2022-01-28T14:51:30.989Z" agent="5.0 (X11; Linux x86_64) AppleWebKit/537.36 (KHTML, like Gecko) Chrome/96.0.4664.110 Safari/537.36" etag="s1-Bl4krqbZGMD4vs2Yt" version="16.4.8" type="github">
  <diagram id="C5RBs43oDa-KdzZeNtuy" name="Page-1">
    <mxGraphModel dx="1825" dy="1813" grid="1" gridSize="10" guides="1" tooltips="1" connect="1" arrows="1" fold="1" page="1" pageScale="1" pageWidth="827" pageHeight="1169" math="0" shadow="0">
      <root>
        <mxCell id="WIyWlLk6GJQsqaUBKTNV-0" />
        <mxCell id="WIyWlLk6GJQsqaUBKTNV-1" parent="WIyWlLk6GJQsqaUBKTNV-0" />
        <mxCell id="mvmTcCIGMzBXoCQXU83n-237" value="" style="rounded=0;whiteSpace=wrap;html=1;hachureGap=4;" parent="WIyWlLk6GJQsqaUBKTNV-1" vertex="1">
          <mxGeometry x="250" y="640" width="1370" height="950" as="geometry" />
        </mxCell>
        <mxCell id="zkfFHV4jXpPFQw0GAbJ--0" value="Combatant" style="swimlane;fontStyle=2;align=center;verticalAlign=top;childLayout=stackLayout;horizontal=1;startSize=26;horizontalStack=0;resizeParent=1;resizeLast=0;collapsible=1;marginBottom=0;rounded=0;shadow=0;strokeWidth=1;" parent="WIyWlLk6GJQsqaUBKTNV-1" vertex="1">
          <mxGeometry x="220" y="120" width="160" height="138" as="geometry">
            <mxRectangle x="230" y="140" width="160" height="26" as="alternateBounds" />
          </mxGeometry>
        </mxCell>
        <mxCell id="zkfFHV4jXpPFQw0GAbJ--1" value="Name : String" style="text;align=left;verticalAlign=top;spacingLeft=4;spacingRight=4;overflow=hidden;rotatable=0;points=[[0,0.5],[1,0.5]];portConstraint=eastwest;" parent="zkfFHV4jXpPFQw0GAbJ--0" vertex="1">
          <mxGeometry y="26" width="160" height="26" as="geometry" />
        </mxCell>
        <mxCell id="W3pktpJ0qgTOmIyloTbi-0" value="CStatus : Enum" style="text;strokeColor=none;fillColor=none;align=left;verticalAlign=top;rounded=0;spacingLeft=4;spacingRight=4;" parent="zkfFHV4jXpPFQw0GAbJ--0" vertex="1">
          <mxGeometry y="52" width="160" height="30" as="geometry" />
        </mxCell>
        <mxCell id="zkfFHV4jXpPFQw0GAbJ--4" value="" style="line;html=1;strokeWidth=1;align=left;verticalAlign=middle;spacingTop=-1;spacingLeft=3;spacingRight=3;rotatable=0;labelPosition=right;points=[];portConstraint=eastwest;" parent="zkfFHV4jXpPFQw0GAbJ--0" vertex="1">
          <mxGeometry y="82" width="160" height="8" as="geometry" />
        </mxCell>
        <mxCell id="zkfFHV4jXpPFQw0GAbJ--6" value="Playable" style="swimlane;fontStyle=0;align=center;verticalAlign=top;childLayout=stackLayout;horizontal=1;startSize=26;horizontalStack=0;resizeParent=1;resizeLast=0;collapsible=1;marginBottom=0;rounded=0;shadow=0;strokeWidth=1;" parent="WIyWlLk6GJQsqaUBKTNV-1" vertex="1">
          <mxGeometry x="120" y="360" width="160" height="214" as="geometry">
            <mxRectangle x="130" y="380" width="160" height="26" as="alternateBounds" />
          </mxGeometry>
        </mxCell>
        <mxCell id="zkfFHV4jXpPFQw0GAbJ--7" value="Player ID : String" style="text;align=left;verticalAlign=top;spacingLeft=4;spacingRight=4;overflow=hidden;rotatable=0;points=[[0,0.5],[1,0.5]];portConstraint=eastwest;" parent="zkfFHV4jXpPFQw0GAbJ--6" vertex="1">
          <mxGeometry y="26" width="160" height="24" as="geometry" />
        </mxCell>
        <mxCell id="zkfFHV4jXpPFQw0GAbJ--8" value="NameÂ : String" style="text;align=left;verticalAlign=top;spacingLeft=4;spacingRight=4;overflow=hidden;rotatable=0;points=[[0,0.5],[1,0.5]];portConstraint=eastwest;rounded=0;shadow=0;html=0;" parent="zkfFHV4jXpPFQw0GAbJ--6" vertex="1">
          <mxGeometry y="50" width="160" height="26" as="geometry" />
        </mxCell>
        <mxCell id="zkfFHV4jXpPFQw0GAbJ--9" value="" style="line;html=1;strokeWidth=1;align=left;verticalAlign=middle;spacingTop=-1;spacingLeft=3;spacingRight=3;rotatable=0;labelPosition=right;points=[];portConstraint=eastwest;" parent="zkfFHV4jXpPFQw0GAbJ--6" vertex="1">
          <mxGeometry y="76" width="160" height="8" as="geometry" />
        </mxCell>
        <mxCell id="zkfFHV4jXpPFQw0GAbJ--10" value="Attack()" style="text;align=left;verticalAlign=top;spacingLeft=4;spacingRight=4;overflow=hidden;rotatable=0;points=[[0,0.5],[1,0.5]];portConstraint=eastwest;fontStyle=0" parent="zkfFHV4jXpPFQw0GAbJ--6" vertex="1">
          <mxGeometry y="84" width="160" height="26" as="geometry" />
        </mxCell>
        <mxCell id="zkfFHV4jXpPFQw0GAbJ--11" value="Defence()" style="text;align=left;verticalAlign=top;spacingLeft=4;spacingRight=4;overflow=hidden;rotatable=0;points=[[0,0.5],[1,0.5]];portConstraint=eastwest;" parent="zkfFHV4jXpPFQw0GAbJ--6" vertex="1">
          <mxGeometry y="110" width="160" height="26" as="geometry" />
        </mxCell>
        <mxCell id="W3pktpJ0qgTOmIyloTbi-34" value="Accuracy()" style="text;align=left;verticalAlign=top;spacingLeft=4;spacingRight=4;overflow=hidden;rotatable=0;points=[[0,0.5],[1,0.5]];portConstraint=eastwest;" parent="zkfFHV4jXpPFQw0GAbJ--6" vertex="1">
          <mxGeometry y="136" width="160" height="26" as="geometry" />
        </mxCell>
        <mxCell id="W3pktpJ0qgTOmIyloTbi-35" value="Speed()" style="text;align=left;verticalAlign=top;spacingLeft=4;spacingRight=4;overflow=hidden;rotatable=0;points=[[0,0.5],[1,0.5]];portConstraint=eastwest;" parent="zkfFHV4jXpPFQw0GAbJ--6" vertex="1">
          <mxGeometry y="162" width="160" height="26" as="geometry" />
        </mxCell>
        <mxCell id="W3pktpJ0qgTOmIyloTbi-36" value="Evasion()" style="text;align=left;verticalAlign=top;spacingLeft=4;spacingRight=4;overflow=hidden;rotatable=0;points=[[0,0.5],[1,0.5]];portConstraint=eastwest;" parent="zkfFHV4jXpPFQw0GAbJ--6" vertex="1">
          <mxGeometry y="188" width="160" height="26" as="geometry" />
        </mxCell>
        <mxCell id="zkfFHV4jXpPFQw0GAbJ--12" value="" style="endArrow=block;endSize=10;endFill=0;shadow=0;strokeWidth=1;rounded=0;edgeStyle=elbowEdgeStyle;elbow=vertical;" parent="WIyWlLk6GJQsqaUBKTNV-1" source="zkfFHV4jXpPFQw0GAbJ--6" target="zkfFHV4jXpPFQw0GAbJ--0" edge="1">
          <mxGeometry width="160" relative="1" as="geometry">
            <mxPoint x="200" y="203" as="sourcePoint" />
            <mxPoint x="200" y="203" as="targetPoint" />
          </mxGeometry>
        </mxCell>
        <mxCell id="zkfFHV4jXpPFQw0GAbJ--13" value="Enemy" style="swimlane;fontStyle=0;align=center;verticalAlign=top;childLayout=stackLayout;horizontal=1;startSize=26;horizontalStack=0;resizeParent=1;resizeLast=0;collapsible=1;marginBottom=0;rounded=0;shadow=0;strokeWidth=1;" parent="WIyWlLk6GJQsqaUBKTNV-1" vertex="1">
          <mxGeometry x="330" y="360" width="160" height="266" as="geometry">
            <mxRectangle x="340" y="380" width="170" height="26" as="alternateBounds" />
          </mxGeometry>
        </mxCell>
        <mxCell id="zkfFHV4jXpPFQw0GAbJ--14" value="Enemy ID" style="text;align=left;verticalAlign=top;spacingLeft=4;spacingRight=4;overflow=hidden;rotatable=0;points=[[0,0.5],[1,0.5]];portConstraint=eastwest;" parent="zkfFHV4jXpPFQw0GAbJ--13" vertex="1">
          <mxGeometry y="26" width="160" height="26" as="geometry" />
        </mxCell>
        <mxCell id="W3pktpJ0qgTOmIyloTbi-28" value="Individual ID : String" style="text;align=left;verticalAlign=top;spacingLeft=4;spacingRight=4;overflow=hidden;rotatable=0;points=[[0,0.5],[1,0.5]];portConstraint=eastwest;" parent="zkfFHV4jXpPFQw0GAbJ--13" vertex="1">
          <mxGeometry y="52" width="160" height="24" as="geometry" />
        </mxCell>
        <mxCell id="zkfFHV4jXpPFQw0GAbJ--15" value="" style="line;html=1;strokeWidth=1;align=left;verticalAlign=middle;spacingTop=-1;spacingLeft=3;spacingRight=3;rotatable=0;labelPosition=right;points=[];portConstraint=eastwest;" parent="zkfFHV4jXpPFQw0GAbJ--13" vertex="1">
          <mxGeometry y="76" width="160" height="8" as="geometry" />
        </mxCell>
        <mxCell id="W3pktpJ0qgTOmIyloTbi-39" value="Attack()" style="text;align=left;verticalAlign=top;spacingLeft=4;spacingRight=4;overflow=hidden;rotatable=0;points=[[0,0.5],[1,0.5]];portConstraint=eastwest;" parent="zkfFHV4jXpPFQw0GAbJ--13" vertex="1">
          <mxGeometry y="84" width="160" height="26" as="geometry" />
        </mxCell>
        <mxCell id="W3pktpJ0qgTOmIyloTbi-38" value="Defence()" style="text;align=left;verticalAlign=top;spacingLeft=4;spacingRight=4;overflow=hidden;rotatable=0;points=[[0,0.5],[1,0.5]];portConstraint=eastwest;" parent="zkfFHV4jXpPFQw0GAbJ--13" vertex="1">
          <mxGeometry y="110" width="160" height="26" as="geometry" />
        </mxCell>
        <mxCell id="W3pktpJ0qgTOmIyloTbi-40" value="Accuracy()" style="text;align=left;verticalAlign=top;spacingLeft=4;spacingRight=4;overflow=hidden;rotatable=0;points=[[0,0.5],[1,0.5]];portConstraint=eastwest;" parent="zkfFHV4jXpPFQw0GAbJ--13" vertex="1">
          <mxGeometry y="136" width="160" height="26" as="geometry" />
        </mxCell>
        <mxCell id="W3pktpJ0qgTOmIyloTbi-41" value="Speed()" style="text;align=left;verticalAlign=top;spacingLeft=4;spacingRight=4;overflow=hidden;rotatable=0;points=[[0,0.5],[1,0.5]];portConstraint=eastwest;" parent="zkfFHV4jXpPFQw0GAbJ--13" vertex="1">
          <mxGeometry y="162" width="160" height="26" as="geometry" />
        </mxCell>
        <mxCell id="W3pktpJ0qgTOmIyloTbi-37" value="Evasion()" style="text;align=left;verticalAlign=top;spacingLeft=4;spacingRight=4;overflow=hidden;rotatable=0;points=[[0,0.5],[1,0.5]];portConstraint=eastwest;" parent="zkfFHV4jXpPFQw0GAbJ--13" vertex="1">
          <mxGeometry y="188" width="160" height="26" as="geometry" />
        </mxCell>
        <mxCell id="W3pktpJ0qgTOmIyloTbi-23" value="AI()" style="text;align=left;verticalAlign=top;spacingLeft=4;spacingRight=4;overflow=hidden;rotatable=0;points=[[0,0.5],[1,0.5]];portConstraint=eastwest;" parent="zkfFHV4jXpPFQw0GAbJ--13" vertex="1">
          <mxGeometry y="214" width="160" height="26" as="geometry" />
        </mxCell>
        <mxCell id="zkfFHV4jXpPFQw0GAbJ--16" value="" style="endArrow=block;endSize=10;endFill=0;shadow=0;strokeWidth=1;rounded=0;edgeStyle=elbowEdgeStyle;elbow=vertical;" parent="WIyWlLk6GJQsqaUBKTNV-1" source="zkfFHV4jXpPFQw0GAbJ--13" target="zkfFHV4jXpPFQw0GAbJ--0" edge="1">
          <mxGeometry width="160" relative="1" as="geometry">
            <mxPoint x="210" y="373" as="sourcePoint" />
            <mxPoint x="310" y="271" as="targetPoint" />
          </mxGeometry>
        </mxCell>
        <mxCell id="zkfFHV4jXpPFQw0GAbJ--17" value="Combat" style="swimlane;fontStyle=0;align=center;verticalAlign=top;childLayout=stackLayout;horizontal=1;startSize=26;horizontalStack=0;resizeParent=1;resizeLast=0;collapsible=1;marginBottom=0;rounded=0;shadow=0;strokeWidth=1;" parent="WIyWlLk6GJQsqaUBKTNV-1" vertex="1">
          <mxGeometry x="508" y="120" width="182" height="268" as="geometry">
            <mxRectangle x="550" y="140" width="160" height="26" as="alternateBounds" />
          </mxGeometry>
        </mxCell>
        <mxCell id="zkfFHV4jXpPFQw0GAbJ--18" value="Location : String" style="text;align=left;verticalAlign=top;spacingLeft=4;spacingRight=4;overflow=hidden;rotatable=0;points=[[0,0.5],[1,0.5]];portConstraint=eastwest;" parent="zkfFHV4jXpPFQw0GAbJ--17" vertex="1">
          <mxGeometry y="26" width="182" height="26" as="geometry" />
        </mxCell>
        <mxCell id="W3pktpJ0qgTOmIyloTbi-2" value="Order : List" style="text;align=left;verticalAlign=top;spacingLeft=4;spacingRight=4;overflow=hidden;rotatable=0;points=[[0,0.5],[1,0.5]];portConstraint=eastwest;" parent="zkfFHV4jXpPFQw0GAbJ--17" vertex="1">
          <mxGeometry y="52" width="182" height="26" as="geometry" />
        </mxCell>
        <mxCell id="zkfFHV4jXpPFQw0GAbJ--23" value="" style="line;html=1;strokeWidth=1;align=left;verticalAlign=middle;spacingTop=-1;spacingLeft=3;spacingRight=3;rotatable=0;labelPosition=right;points=[];portConstraint=eastwest;" parent="zkfFHV4jXpPFQw0GAbJ--17" vertex="1">
          <mxGeometry y="78" width="182" height="8" as="geometry" />
        </mxCell>
        <mxCell id="zkfFHV4jXpPFQw0GAbJ--24" value="Attack(Attacker, Target)" style="text;align=left;verticalAlign=top;spacingLeft=4;spacingRight=4;overflow=hidden;rotatable=0;points=[[0,0.5],[1,0.5]];portConstraint=eastwest;" parent="zkfFHV4jXpPFQw0GAbJ--17" vertex="1">
          <mxGeometry y="86" width="182" height="26" as="geometry" />
        </mxCell>
        <mxCell id="zkfFHV4jXpPFQw0GAbJ--25" value="Block(Blocker, Assailant)" style="text;align=left;verticalAlign=top;spacingLeft=4;spacingRight=4;overflow=hidden;rotatable=0;points=[[0,0.5],[1,0.5]];portConstraint=eastwest;" parent="zkfFHV4jXpPFQw0GAbJ--17" vertex="1">
          <mxGeometry y="112" width="182" height="26" as="geometry" />
        </mxCell>
        <mxCell id="W3pktpJ0qgTOmIyloTbi-3" value="Appraise(Target)" style="text;align=left;verticalAlign=top;spacingLeft=4;spacingRight=4;overflow=hidden;rotatable=0;points=[[0,0.5],[1,0.5]];portConstraint=eastwest;" parent="zkfFHV4jXpPFQw0GAbJ--17" vertex="1">
          <mxGeometry y="138" width="182" height="26" as="geometry" />
        </mxCell>
        <mxCell id="W3pktpJ0qgTOmIyloTbi-20" value="Special(Specialist, Ally, Target)" style="text;align=left;verticalAlign=top;spacingLeft=4;spacingRight=4;overflow=hidden;rotatable=0;points=[[0,0.5],[1,0.5]];portConstraint=eastwest;" parent="zkfFHV4jXpPFQw0GAbJ--17" vertex="1">
          <mxGeometry y="164" width="182" height="26" as="geometry" />
        </mxCell>
        <mxCell id="W3pktpJ0qgTOmIyloTbi-21" value="Items(User, Target)" style="text;align=left;verticalAlign=top;spacingLeft=4;spacingRight=4;overflow=hidden;rotatable=0;points=[[0,0.5],[1,0.5]];portConstraint=eastwest;" parent="zkfFHV4jXpPFQw0GAbJ--17" vertex="1">
          <mxGeometry y="190" width="182" height="26" as="geometry" />
        </mxCell>
        <mxCell id="W3pktpJ0qgTOmIyloTbi-22" value="Flee()" style="text;align=left;verticalAlign=top;spacingLeft=4;spacingRight=4;overflow=hidden;rotatable=0;points=[[0,0.5],[1,0.5]];portConstraint=eastwest;" parent="zkfFHV4jXpPFQw0GAbJ--17" vertex="1">
          <mxGeometry y="216" width="182" height="26" as="geometry" />
        </mxCell>
        <mxCell id="W3pktpJ0qgTOmIyloTbi-58" value="Record(List)" style="text;align=left;verticalAlign=top;spacingLeft=4;spacingRight=4;overflow=hidden;rotatable=0;points=[[0,0.5],[1,0.5]];portConstraint=eastwest;" parent="zkfFHV4jXpPFQw0GAbJ--17" vertex="1">
          <mxGeometry y="242" width="182" height="26" as="geometry" />
        </mxCell>
        <mxCell id="zkfFHV4jXpPFQw0GAbJ--26" value="" style="endArrow=open;shadow=0;strokeWidth=1;rounded=0;endFill=1;edgeStyle=elbowEdgeStyle;elbow=vertical;" parent="WIyWlLk6GJQsqaUBKTNV-1" source="zkfFHV4jXpPFQw0GAbJ--0" target="zkfFHV4jXpPFQw0GAbJ--17" edge="1">
          <mxGeometry x="0.5" y="41" relative="1" as="geometry">
            <mxPoint x="380" y="192" as="sourcePoint" />
            <mxPoint x="540" y="192" as="targetPoint" />
            <mxPoint x="-40" y="32" as="offset" />
          </mxGeometry>
        </mxCell>
        <mxCell id="zkfFHV4jXpPFQw0GAbJ--27" value="1...*" style="resizable=0;align=left;verticalAlign=bottom;labelBackgroundColor=none;fontSize=12;" parent="zkfFHV4jXpPFQw0GAbJ--26" connectable="0" vertex="1">
          <mxGeometry x="-1" relative="1" as="geometry">
            <mxPoint y="4" as="offset" />
          </mxGeometry>
        </mxCell>
        <mxCell id="zkfFHV4jXpPFQw0GAbJ--28" value="1" style="resizable=0;align=right;verticalAlign=bottom;labelBackgroundColor=none;fontSize=12;" parent="zkfFHV4jXpPFQw0GAbJ--26" connectable="0" vertex="1">
          <mxGeometry x="1" relative="1" as="geometry">
            <mxPoint x="-7" y="4" as="offset" />
          </mxGeometry>
        </mxCell>
        <mxCell id="zkfFHV4jXpPFQw0GAbJ--29" value="Fighting in" style="text;html=1;resizable=0;points=[];;align=center;verticalAlign=middle;labelBackgroundColor=none;rounded=0;shadow=0;strokeWidth=1;fontSize=12;" parent="zkfFHV4jXpPFQw0GAbJ--26" vertex="1" connectable="0">
          <mxGeometry x="0.5" y="49" relative="1" as="geometry">
            <mxPoint x="-38" y="40" as="offset" />
          </mxGeometry>
        </mxCell>
        <mxCell id="W3pktpJ0qgTOmIyloTbi-4" value="Game" style="swimlane;fontStyle=0;align=center;verticalAlign=top;childLayout=stackLayout;horizontal=1;startSize=26;horizontalStack=0;resizeParent=1;resizeLast=0;collapsible=1;marginBottom=0;rounded=0;shadow=0;strokeWidth=1;" parent="WIyWlLk6GJQsqaUBKTNV-1" vertex="1">
          <mxGeometry x="800" y="120" width="160" height="346" as="geometry">
            <mxRectangle x="550" y="140" width="160" height="26" as="alternateBounds" />
          </mxGeometry>
        </mxCell>
        <mxCell id="W3pktpJ0qgTOmIyloTbi-46" value="Chapter : String" style="text;align=left;verticalAlign=top;spacingLeft=4;spacingRight=4;overflow=hidden;rotatable=0;points=[[0,0.5],[1,0.5]];portConstraint=eastwest;" parent="W3pktpJ0qgTOmIyloTbi-4" vertex="1">
          <mxGeometry y="26" width="160" height="26" as="geometry" />
        </mxCell>
        <mxCell id="W3pktpJ0qgTOmIyloTbi-47" value="Part : String" style="text;align=left;verticalAlign=top;spacingLeft=4;spacingRight=4;overflow=hidden;rotatable=0;points=[[0,0.5],[1,0.5]];portConstraint=eastwest;" parent="W3pktpJ0qgTOmIyloTbi-4" vertex="1">
          <mxGeometry y="52" width="160" height="26" as="geometry" />
        </mxCell>
        <mxCell id="W3pktpJ0qgTOmIyloTbi-5" value="Location : String" style="text;align=left;verticalAlign=top;spacingLeft=4;spacingRight=4;overflow=hidden;rotatable=0;points=[[0,0.5],[1,0.5]];portConstraint=eastwest;" parent="W3pktpJ0qgTOmIyloTbi-4" vertex="1">
          <mxGeometry y="78" width="160" height="26" as="geometry" />
        </mxCell>
        <mxCell id="W3pktpJ0qgTOmIyloTbi-6" value="Shillings : Int" style="text;align=left;verticalAlign=top;spacingLeft=4;spacingRight=4;overflow=hidden;rotatable=0;points=[[0,0.5],[1,0.5]];portConstraint=eastwest;" parent="W3pktpJ0qgTOmIyloTbi-4" vertex="1">
          <mxGeometry y="104" width="160" height="26" as="geometry" />
        </mxCell>
        <mxCell id="W3pktpJ0qgTOmIyloTbi-7" value="Inventory : List" style="text;align=left;verticalAlign=top;spacingLeft=4;spacingRight=4;overflow=hidden;rotatable=0;points=[[0,0.5],[1,0.5]];portConstraint=eastwest;" parent="W3pktpJ0qgTOmIyloTbi-4" vertex="1">
          <mxGeometry y="130" width="160" height="26" as="geometry" />
        </mxCell>
        <mxCell id="W3pktpJ0qgTOmIyloTbi-43" value="Chapter1Switch : List" style="text;align=left;verticalAlign=top;spacingLeft=4;spacingRight=4;overflow=hidden;rotatable=0;points=[[0,0.5],[1,0.5]];portConstraint=eastwest;" parent="W3pktpJ0qgTOmIyloTbi-4" vertex="1">
          <mxGeometry y="156" width="160" height="26" as="geometry" />
        </mxCell>
        <mxCell id="W3pktpJ0qgTOmIyloTbi-44" value="Chapter2Switch : List" style="text;align=left;verticalAlign=top;spacingLeft=4;spacingRight=4;overflow=hidden;rotatable=0;points=[[0,0.5],[1,0.5]];portConstraint=eastwest;" parent="W3pktpJ0qgTOmIyloTbi-4" vertex="1">
          <mxGeometry y="182" width="160" height="26" as="geometry" />
        </mxCell>
        <mxCell id="W3pktpJ0qgTOmIyloTbi-45" value="Chapter3Switch : List" style="text;align=left;verticalAlign=top;spacingLeft=4;spacingRight=4;overflow=hidden;rotatable=0;points=[[0,0.5],[1,0.5]];portConstraint=eastwest;" parent="W3pktpJ0qgTOmIyloTbi-4" vertex="1">
          <mxGeometry y="208" width="160" height="26" as="geometry" />
        </mxCell>
        <mxCell id="W3pktpJ0qgTOmIyloTbi-55" value="PickupSwitch : List" style="text;align=left;verticalAlign=top;spacingLeft=4;spacingRight=4;overflow=hidden;rotatable=0;points=[[0,0.5],[1,0.5]];portConstraint=eastwest;" parent="W3pktpJ0qgTOmIyloTbi-4" vertex="1">
          <mxGeometry y="234" width="160" height="26" as="geometry" />
        </mxCell>
        <mxCell id="W3pktpJ0qgTOmIyloTbi-8" value="" style="line;html=1;strokeWidth=1;align=left;verticalAlign=middle;spacingTop=-1;spacingLeft=3;spacingRight=3;rotatable=0;labelPosition=right;points=[];portConstraint=eastwest;" parent="W3pktpJ0qgTOmIyloTbi-4" vertex="1">
          <mxGeometry y="260" width="160" height="8" as="geometry" />
        </mxCell>
        <mxCell id="W3pktpJ0qgTOmIyloTbi-9" value="Examine()" style="text;align=left;verticalAlign=top;spacingLeft=4;spacingRight=4;overflow=hidden;rotatable=0;points=[[0,0.5],[1,0.5]];portConstraint=eastwest;" parent="W3pktpJ0qgTOmIyloTbi-4" vertex="1">
          <mxGeometry y="268" width="160" height="26" as="geometry" />
        </mxCell>
        <mxCell id="W3pktpJ0qgTOmIyloTbi-10" value="Talk()" style="text;align=left;verticalAlign=top;spacingLeft=4;spacingRight=4;overflow=hidden;rotatable=0;points=[[0,0.5],[1,0.5]];portConstraint=eastwest;" parent="W3pktpJ0qgTOmIyloTbi-4" vertex="1">
          <mxGeometry y="294" width="160" height="26" as="geometry" />
        </mxCell>
        <mxCell id="W3pktpJ0qgTOmIyloTbi-11" value="Move()" style="text;align=left;verticalAlign=top;spacingLeft=4;spacingRight=4;overflow=hidden;rotatable=0;points=[[0,0.5],[1,0.5]];portConstraint=eastwest;" parent="W3pktpJ0qgTOmIyloTbi-4" vertex="1">
          <mxGeometry y="320" width="160" height="26" as="geometry" />
        </mxCell>
        <mxCell id="W3pktpJ0qgTOmIyloTbi-25" style="edgeStyle=orthogonalEdgeStyle;rounded=0;orthogonalLoop=1;jettySize=auto;html=1;entryX=0;entryY=0.5;entryDx=0;entryDy=0;" parent="WIyWlLk6GJQsqaUBKTNV-1" source="zkfFHV4jXpPFQw0GAbJ--18" target="W3pktpJ0qgTOmIyloTbi-46" edge="1">
          <mxGeometry relative="1" as="geometry" />
        </mxCell>
        <mxCell id="W3pktpJ0qgTOmIyloTbi-29" value="ExamineMode" style="swimlane;fontStyle=0;childLayout=stackLayout;horizontal=1;startSize=30;horizontalStack=0;resizeParent=1;resizeParentMax=0;resizeLast=0;collapsible=1;marginBottom=0;align=left;verticalAlign=top;html=0;" parent="WIyWlLk6GJQsqaUBKTNV-1" vertex="1">
          <mxGeometry x="1110" y="120" width="130" height="224" as="geometry" />
        </mxCell>
        <mxCell id="W3pktpJ0qgTOmIyloTbi-30" value="Location : String" style="text;strokeColor=none;fillColor=none;align=left;verticalAlign=middle;spacingLeft=4;spacingRight=4;overflow=hidden;points=[[0,0.5],[1,0.5]];portConstraint=eastwest;rotatable=0;html=0;" parent="W3pktpJ0qgTOmIyloTbi-29" vertex="1">
          <mxGeometry y="30" width="130" height="30" as="geometry" />
        </mxCell>
        <mxCell id="W3pktpJ0qgTOmIyloTbi-31" value="Locations: List" style="text;strokeColor=none;fillColor=none;align=left;verticalAlign=middle;spacingLeft=4;spacingRight=4;overflow=hidden;points=[[0,0.5],[1,0.5]];portConstraint=eastwest;rotatable=0;html=0;" parent="W3pktpJ0qgTOmIyloTbi-29" vertex="1">
          <mxGeometry y="60" width="130" height="30" as="geometry" />
        </mxCell>
        <mxCell id="W3pktpJ0qgTOmIyloTbi-49" value="Chapter1Switch : List" style="text;align=left;verticalAlign=top;spacingLeft=4;spacingRight=4;overflow=hidden;rotatable=0;points=[[0,0.5],[1,0.5]];portConstraint=eastwest;" parent="W3pktpJ0qgTOmIyloTbi-29" vertex="1">
          <mxGeometry y="90" width="130" height="26" as="geometry" />
        </mxCell>
        <mxCell id="W3pktpJ0qgTOmIyloTbi-50" value="Chapter2Switch : List" style="text;align=left;verticalAlign=top;spacingLeft=4;spacingRight=4;overflow=hidden;rotatable=0;points=[[0,0.5],[1,0.5]];portConstraint=eastwest;" parent="W3pktpJ0qgTOmIyloTbi-29" vertex="1">
          <mxGeometry y="116" width="130" height="26" as="geometry" />
        </mxCell>
        <mxCell id="W3pktpJ0qgTOmIyloTbi-51" value="Chapter3Switch : List" style="text;align=left;verticalAlign=top;spacingLeft=4;spacingRight=4;overflow=hidden;rotatable=0;points=[[0,0.5],[1,0.5]];portConstraint=eastwest;" parent="W3pktpJ0qgTOmIyloTbi-29" vertex="1">
          <mxGeometry y="142" width="130" height="26" as="geometry" />
        </mxCell>
        <mxCell id="W3pktpJ0qgTOmIyloTbi-56" value="PickupSwitch : List" style="text;align=left;verticalAlign=top;spacingLeft=4;spacingRight=4;overflow=hidden;rotatable=0;points=[[0,0.5],[1,0.5]];portConstraint=eastwest;" parent="W3pktpJ0qgTOmIyloTbi-29" vertex="1">
          <mxGeometry y="168" width="130" height="26" as="geometry" />
        </mxCell>
        <mxCell id="W3pktpJ0qgTOmIyloTbi-53" value="Pickup()" style="text;strokeColor=none;fillColor=none;align=left;verticalAlign=middle;spacingLeft=4;spacingRight=4;overflow=hidden;points=[[0,0.5],[1,0.5]];portConstraint=eastwest;rotatable=0;html=0;" parent="W3pktpJ0qgTOmIyloTbi-29" vertex="1">
          <mxGeometry y="194" width="130" height="30" as="geometry" />
        </mxCell>
        <mxCell id="W3pktpJ0qgTOmIyloTbi-54" value="" style="endArrow=none;html=1;rounded=0;entryX=0;entryY=0.033;entryDx=0;entryDy=0;entryPerimeter=0;exitX=0.993;exitY=0;exitDx=0;exitDy=0;exitPerimeter=0;" parent="W3pktpJ0qgTOmIyloTbi-29" source="W3pktpJ0qgTOmIyloTbi-53" target="W3pktpJ0qgTOmIyloTbi-53" edge="1">
          <mxGeometry width="50" height="50" relative="1" as="geometry">
            <mxPoint x="310" y="169" as="sourcePoint" />
            <mxPoint x="1220" y="287" as="targetPoint" />
            <Array as="points" />
          </mxGeometry>
        </mxCell>
        <mxCell id="W3pktpJ0qgTOmIyloTbi-57" style="edgeStyle=orthogonalEdgeStyle;rounded=0;orthogonalLoop=1;jettySize=auto;html=1;entryX=0;entryY=0.063;entryDx=0;entryDy=0;entryPerimeter=0;" parent="WIyWlLk6GJQsqaUBKTNV-1" source="W3pktpJ0qgTOmIyloTbi-9" target="W3pktpJ0qgTOmIyloTbi-29" edge="1">
          <mxGeometry relative="1" as="geometry" />
        </mxCell>
        <mxCell id="eRDqk77Hg42XvIJXzPui-0" value="Combatant" style="swimlane;fontStyle=2;align=center;verticalAlign=top;childLayout=stackLayout;horizontal=1;startSize=26;horizontalStack=0;resizeParent=1;resizeLast=0;collapsible=1;marginBottom=0;rounded=0;shadow=0;strokeWidth=1;" parent="WIyWlLk6GJQsqaUBKTNV-1" vertex="1">
          <mxGeometry x="1110" y="388" width="160" height="138" as="geometry">
            <mxRectangle x="230" y="140" width="160" height="26" as="alternateBounds" />
          </mxGeometry>
        </mxCell>
        <mxCell id="eRDqk77Hg42XvIJXzPui-1" value="Name : String" style="text;align=left;verticalAlign=top;spacingLeft=4;spacingRight=4;overflow=hidden;rotatable=0;points=[[0,0.5],[1,0.5]];portConstraint=eastwest;" parent="eRDqk77Hg42XvIJXzPui-0" vertex="1">
          <mxGeometry y="26" width="160" height="26" as="geometry" />
        </mxCell>
        <mxCell id="eRDqk77Hg42XvIJXzPui-2" value="CStatus : Enum" style="text;strokeColor=none;fillColor=none;align=left;verticalAlign=top;rounded=0;spacingLeft=4;spacingRight=4;" parent="eRDqk77Hg42XvIJXzPui-0" vertex="1">
          <mxGeometry y="52" width="160" height="30" as="geometry" />
        </mxCell>
        <mxCell id="eRDqk77Hg42XvIJXzPui-3" value="" style="line;html=1;strokeWidth=1;align=left;verticalAlign=middle;spacingTop=-1;spacingLeft=3;spacingRight=3;rotatable=0;labelPosition=right;points=[];portConstraint=eastwest;" parent="eRDqk77Hg42XvIJXzPui-0" vertex="1">
          <mxGeometry y="82" width="160" height="8" as="geometry" />
        </mxCell>
        <mxCell id="eRDqk77Hg42XvIJXzPui-4" value="Record" style="swimlane;fontStyle=2;align=center;verticalAlign=top;childLayout=stackLayout;horizontal=1;startSize=26;horizontalStack=0;resizeParent=1;resizeLast=0;collapsible=1;marginBottom=0;rounded=0;shadow=0;strokeWidth=1;" parent="WIyWlLk6GJQsqaUBKTNV-1" vertex="1">
          <mxGeometry x="30" y="32" width="160" height="294" as="geometry">
            <mxRectangle x="230" y="140" width="160" height="26" as="alternateBounds" />
          </mxGeometry>
        </mxCell>
        <mxCell id="eRDqk77Hg42XvIJXzPui-5" value="RecordList : List" style="text;align=left;verticalAlign=top;spacingLeft=4;spacingRight=4;overflow=hidden;rotatable=0;points=[[0,0.5],[1,0.5]];portConstraint=eastwest;" parent="eRDqk77Hg42XvIJXzPui-4" vertex="1">
          <mxGeometry y="26" width="160" height="26" as="geometry" />
        </mxCell>
        <mxCell id="eRDqk77Hg42XvIJXzPui-7" value="" style="line;html=1;strokeWidth=1;align=left;verticalAlign=middle;spacingTop=-1;spacingLeft=3;spacingRight=3;rotatable=0;labelPosition=right;points=[];portConstraint=eastwest;" parent="eRDqk77Hg42XvIJXzPui-4" vertex="1">
          <mxGeometry y="52" width="160" height="8" as="geometry" />
        </mxCell>
        <mxCell id="ptEhDMpME4YLXCn7Hwwd-0" value="recordNoAct(Id, name, type, status)" style="text;align=left;verticalAlign=top;spacingLeft=4;spacingRight=4;overflow=hidden;rotatable=0;points=[[0,0.5],[1,0.5]];portConstraint=eastwest;" parent="eRDqk77Hg42XvIJXzPui-4" vertex="1">
          <mxGeometry y="60" width="160" height="26" as="geometry" />
        </mxCell>
        <mxCell id="ptEhDMpME4YLXCn7Hwwd-1" value="recordAttack(Id, name, type, status, hit, impact" style="text;align=left;verticalAlign=top;spacingLeft=4;spacingRight=4;overflow=hidden;rotatable=0;points=[[0,0.5],[1,0.5]];portConstraint=eastwest;" parent="eRDqk77Hg42XvIJXzPui-4" vertex="1">
          <mxGeometry y="86" width="160" height="26" as="geometry" />
        </mxCell>
        <mxCell id="ptEhDMpME4YLXCn7Hwwd-2" value="recordBlock(Id, name, type, status)" style="text;align=left;verticalAlign=top;spacingLeft=4;spacingRight=4;overflow=hidden;rotatable=0;points=[[0,0.5],[1,0.5]];portConstraint=eastwest;" parent="eRDqk77Hg42XvIJXzPui-4" vertex="1">
          <mxGeometry y="112" width="160" height="26" as="geometry" />
        </mxCell>
        <mxCell id="ptEhDMpME4YLXCn7Hwwd-3" value="recordManuver(Id, name, type, status,Â mnvType, manuver)" style="text;align=left;verticalAlign=top;spacingLeft=4;spacingRight=4;overflow=hidden;rotatable=0;points=[[0,0.5],[1,0.5]];portConstraint=eastwest;" parent="eRDqk77Hg42XvIJXzPui-4" vertex="1">
          <mxGeometry y="138" width="160" height="26" as="geometry" />
        </mxCell>
        <mxCell id="ptEhDMpME4YLXCn7Hwwd-7" value="recordMagic(Id, name, type, status, splType, spell)" style="text;align=left;verticalAlign=top;spacingLeft=4;spacingRight=4;overflow=hidden;rotatable=0;points=[[0,0.5],[1,0.5]];portConstraint=eastwest;" parent="eRDqk77Hg42XvIJXzPui-4" vertex="1">
          <mxGeometry y="164" width="160" height="26" as="geometry" />
        </mxCell>
        <mxCell id="ptEhDMpME4YLXCn7Hwwd-6" value="recordItem(Id,Â  Item_Id, name, iitem_Type, status" style="text;align=left;verticalAlign=top;spacingLeft=4;spacingRight=4;overflow=hidden;rotatable=0;points=[[0,0.5],[1,0.5]];portConstraint=eastwest;" parent="eRDqk77Hg42XvIJXzPui-4" vertex="1">
          <mxGeometry y="190" width="160" height="26" as="geometry" />
        </mxCell>
        <mxCell id="ptEhDMpME4YLXCn7Hwwd-5" value="recordFlee(Id, name, type, status)" style="text;align=left;verticalAlign=top;spacingLeft=4;spacingRight=4;overflow=hidden;rotatable=0;points=[[0,0.5],[1,0.5]];portConstraint=eastwest;" parent="eRDqk77Hg42XvIJXzPui-4" vertex="1">
          <mxGeometry y="216" width="160" height="26" as="geometry" />
        </mxCell>
        <mxCell id="ptEhDMpME4YLXCn7Hwwd-8" value="recordAliment(Id, name, type, status,aliment,damage)" style="text;align=left;verticalAlign=top;spacingLeft=4;spacingRight=4;overflow=hidden;rotatable=0;points=[[0,0.5],[1,0.5]];portConstraint=eastwest;" parent="eRDqk77Hg42XvIJXzPui-4" vertex="1">
          <mxGeometry y="242" width="160" height="26" as="geometry" />
        </mxCell>
        <mxCell id="ptEhDMpME4YLXCn7Hwwd-4" value="playRecord()" style="text;align=left;verticalAlign=top;spacingLeft=4;spacingRight=4;overflow=hidden;rotatable=0;points=[[0,0.5],[1,0.5]];portConstraint=eastwest;" parent="eRDqk77Hg42XvIJXzPui-4" vertex="1">
          <mxGeometry y="268" width="160" height="26" as="geometry" />
        </mxCell>
        <mxCell id="eRDqk77Hg42XvIJXzPui-11" value="Food" style="swimlane;fontStyle=2;align=center;verticalAlign=top;childLayout=stackLayout;horizontal=1;startSize=26;horizontalStack=0;resizeParent=1;resizeLast=0;collapsible=1;marginBottom=0;rounded=0;shadow=0;strokeWidth=1;" parent="WIyWlLk6GJQsqaUBKTNV-1" vertex="1">
          <mxGeometry x="1040" y="694" width="90" height="170" as="geometry">
            <mxRectangle x="230" y="140" width="160" height="26" as="alternateBounds" />
          </mxGeometry>
        </mxCell>
        <mxCell id="6xROt9ECHWjZZX5h_peN-2" value="itemId : Int" style="text;strokeColor=none;fillColor=none;align=left;verticalAlign=top;rounded=0;spacingLeft=4;spacingRight=4;" parent="eRDqk77Hg42XvIJXzPui-11" vertex="1">
          <mxGeometry y="26" width="90" height="30" as="geometry" />
        </mxCell>
        <mxCell id="eRDqk77Hg42XvIJXzPui-12" value="Name : String" style="text;align=left;verticalAlign=top;spacingLeft=4;spacingRight=4;overflow=hidden;rotatable=0;points=[[0,0.5],[1,0.5]];portConstraint=eastwest;" parent="eRDqk77Hg42XvIJXzPui-11" vertex="1">
          <mxGeometry y="56" width="90" height="26" as="geometry" />
        </mxCell>
        <mxCell id="eRDqk77Hg42XvIJXzPui-13" value="Weight : Int" style="text;strokeColor=none;fillColor=none;align=left;verticalAlign=top;rounded=0;spacingLeft=4;spacingRight=4;" parent="eRDqk77Hg42XvIJXzPui-11" vertex="1">
          <mxGeometry y="82" width="90" height="30" as="geometry" />
        </mxCell>
        <mxCell id="6xROt9ECHWjZZX5h_peN-1" value="Recover : Int" style="text;strokeColor=none;fillColor=none;align=left;verticalAlign=top;rounded=0;spacingLeft=4;spacingRight=4;" parent="eRDqk77Hg42XvIJXzPui-11" vertex="1">
          <mxGeometry y="112" width="90" height="30" as="geometry" />
        </mxCell>
        <mxCell id="eRDqk77Hg42XvIJXzPui-14" value="" style="line;html=1;strokeWidth=1;align=left;verticalAlign=middle;spacingTop=-1;spacingLeft=3;spacingRight=3;rotatable=0;labelPosition=right;points=[];portConstraint=eastwest;" parent="eRDqk77Hg42XvIJXzPui-11" vertex="1">
          <mxGeometry y="142" width="90" height="28" as="geometry" />
        </mxCell>
        <mxCell id="eRDqk77Hg42XvIJXzPui-15" value="Items" style="swimlane;fontStyle=2;align=center;verticalAlign=top;childLayout=stackLayout;horizontal=1;startSize=26;horizontalStack=0;resizeParent=1;resizeLast=0;collapsible=1;marginBottom=0;rounded=0;shadow=0;strokeWidth=1;" parent="WIyWlLk6GJQsqaUBKTNV-1" vertex="1">
          <mxGeometry x="860" y="660" width="160" height="174" as="geometry">
            <mxRectangle x="230" y="140" width="160" height="26" as="alternateBounds" />
          </mxGeometry>
        </mxCell>
        <mxCell id="eRDqk77Hg42XvIJXzPui-16" value="Name : String" style="text;align=left;verticalAlign=top;spacingLeft=4;spacingRight=4;overflow=hidden;rotatable=0;points=[[0,0.5],[1,0.5]];portConstraint=eastwest;" parent="eRDqk77Hg42XvIJXzPui-15" vertex="1">
          <mxGeometry y="26" width="160" height="26" as="geometry" />
        </mxCell>
        <mxCell id="eRDqk77Hg42XvIJXzPui-17" value="itemType: Enum" style="text;strokeColor=none;fillColor=none;align=left;verticalAlign=top;rounded=0;spacingLeft=4;spacingRight=4;" parent="eRDqk77Hg42XvIJXzPui-15" vertex="1">
          <mxGeometry y="52" width="160" height="30" as="geometry" />
        </mxCell>
        <mxCell id="6xROt9ECHWjZZX5h_peN-4" value="priority : Int" style="text;strokeColor=none;fillColor=none;align=left;verticalAlign=top;rounded=0;spacingLeft=4;spacingRight=4;" parent="eRDqk77Hg42XvIJXzPui-15" vertex="1">
          <mxGeometry y="82" width="160" height="30" as="geometry" />
        </mxCell>
        <mxCell id="6xROt9ECHWjZZX5h_peN-3" value="Weight : Int" style="text;strokeColor=none;fillColor=none;align=left;verticalAlign=top;rounded=0;spacingLeft=4;spacingRight=4;" parent="eRDqk77Hg42XvIJXzPui-15" vertex="1">
          <mxGeometry y="112" width="160" height="30" as="geometry" />
        </mxCell>
        <mxCell id="eRDqk77Hg42XvIJXzPui-18" value="" style="line;html=1;strokeWidth=1;align=left;verticalAlign=middle;spacingTop=-1;spacingLeft=3;spacingRight=3;rotatable=0;labelPosition=right;points=[];portConstraint=eastwest;" parent="eRDqk77Hg42XvIJXzPui-15" vertex="1">
          <mxGeometry y="142" width="160" height="8" as="geometry" />
        </mxCell>
        <mxCell id="eRDqk77Hg42XvIJXzPui-24" style="edgeStyle=orthogonalEdgeStyle;rounded=0;orthogonalLoop=1;jettySize=auto;html=1;entryX=0.5;entryY=1;entryDx=0;entryDy=0;endArrow=block;endFill=0;endSize=10;exitX=0.25;exitY=1;exitDx=0;exitDy=0;" parent="WIyWlLk6GJQsqaUBKTNV-1" source="eRDqk77Hg42XvIJXzPui-11" target="eRDqk77Hg42XvIJXzPui-15" edge="1">
          <mxGeometry relative="1" as="geometry">
            <mxPoint x="1150" y="884" as="sourcePoint" />
            <mxPoint x="920" y="804" as="targetPoint" />
            <Array as="points">
              <mxPoint x="1085" y="864" />
              <mxPoint x="1085" y="914" />
              <mxPoint x="940" y="914" />
            </Array>
          </mxGeometry>
        </mxCell>
        <mxCell id="mvmTcCIGMzBXoCQXU83n-0" value="Healing" style="swimlane;fontStyle=2;align=center;verticalAlign=top;childLayout=stackLayout;horizontal=1;startSize=26;horizontalStack=0;resizeParent=1;resizeLast=0;collapsible=1;marginBottom=0;rounded=0;shadow=0;strokeWidth=1;" parent="WIyWlLk6GJQsqaUBKTNV-1" vertex="1">
          <mxGeometry x="1140" y="694" width="90" height="196" as="geometry">
            <mxRectangle x="230" y="140" width="160" height="26" as="alternateBounds" />
          </mxGeometry>
        </mxCell>
        <mxCell id="mvmTcCIGMzBXoCQXU83n-1" value="itemId : Int" style="text;strokeColor=none;fillColor=none;align=left;verticalAlign=top;rounded=0;spacingLeft=4;spacingRight=4;" parent="mvmTcCIGMzBXoCQXU83n-0" vertex="1">
          <mxGeometry y="26" width="90" height="30" as="geometry" />
        </mxCell>
        <mxCell id="mvmTcCIGMzBXoCQXU83n-2" value="Name : String" style="text;align=left;verticalAlign=top;spacingLeft=4;spacingRight=4;overflow=hidden;rotatable=0;points=[[0,0.5],[1,0.5]];portConstraint=eastwest;" parent="mvmTcCIGMzBXoCQXU83n-0" vertex="1">
          <mxGeometry y="56" width="90" height="26" as="geometry" />
        </mxCell>
        <mxCell id="mvmTcCIGMzBXoCQXU83n-3" value="Weight : Int" style="text;strokeColor=none;fillColor=none;align=left;verticalAlign=top;rounded=0;spacingLeft=4;spacingRight=4;" parent="mvmTcCIGMzBXoCQXU83n-0" vertex="1">
          <mxGeometry y="82" width="90" height="30" as="geometry" />
        </mxCell>
        <mxCell id="mvmTcCIGMzBXoCQXU83n-4" value="Recover : Int" style="text;strokeColor=none;fillColor=none;align=left;verticalAlign=top;rounded=0;spacingLeft=4;spacingRight=4;" parent="mvmTcCIGMzBXoCQXU83n-0" vertex="1">
          <mxGeometry y="112" width="90" height="30" as="geometry" />
        </mxCell>
        <mxCell id="mvmTcCIGMzBXoCQXU83n-29" value="desc : String" style="text;align=left;verticalAlign=top;spacingLeft=4;spacingRight=4;overflow=hidden;rotatable=0;points=[[0,0.5],[1,0.5]];portConstraint=eastwest;" parent="mvmTcCIGMzBXoCQXU83n-0" vertex="1">
          <mxGeometry y="142" width="90" height="26" as="geometry" />
        </mxCell>
        <mxCell id="mvmTcCIGMzBXoCQXU83n-5" value="" style="line;html=1;strokeWidth=1;align=left;verticalAlign=middle;spacingTop=-1;spacingLeft=3;spacingRight=3;rotatable=0;labelPosition=right;points=[];portConstraint=eastwest;" parent="mvmTcCIGMzBXoCQXU83n-0" vertex="1">
          <mxGeometry y="168" width="90" height="28" as="geometry" />
        </mxCell>
        <mxCell id="mvmTcCIGMzBXoCQXU83n-6" value="Weapon" style="swimlane;fontStyle=2;align=center;verticalAlign=top;childLayout=stackLayout;horizontal=1;startSize=26;horizontalStack=0;resizeParent=1;resizeLast=0;collapsible=1;marginBottom=0;rounded=0;shadow=0;strokeWidth=1;" parent="WIyWlLk6GJQsqaUBKTNV-1" vertex="1">
          <mxGeometry x="667" y="661" width="160" height="256" as="geometry">
            <mxRectangle x="230" y="140" width="160" height="26" as="alternateBounds" />
          </mxGeometry>
        </mxCell>
        <mxCell id="mvmTcCIGMzBXoCQXU83n-7" value="wpId : Int" style="text;strokeColor=none;fillColor=none;align=left;verticalAlign=top;rounded=0;spacingLeft=4;spacingRight=4;" parent="mvmTcCIGMzBXoCQXU83n-6" vertex="1">
          <mxGeometry y="26" width="160" height="30" as="geometry" />
        </mxCell>
        <mxCell id="mvmTcCIGMzBXoCQXU83n-8" value="Name : String" style="text;align=left;verticalAlign=top;spacingLeft=4;spacingRight=4;overflow=hidden;rotatable=0;points=[[0,0.5],[1,0.5]];portConstraint=eastwest;" parent="mvmTcCIGMzBXoCQXU83n-6" vertex="1">
          <mxGeometry y="56" width="160" height="26" as="geometry" />
        </mxCell>
        <mxCell id="mvmTcCIGMzBXoCQXU83n-36" value="attack : Int" style="text;strokeColor=none;fillColor=none;align=left;verticalAlign=top;rounded=0;spacingLeft=4;spacingRight=4;" parent="mvmTcCIGMzBXoCQXU83n-6" vertex="1">
          <mxGeometry y="82" width="160" height="30" as="geometry" />
        </mxCell>
        <mxCell id="mvmTcCIGMzBXoCQXU83n-33" value="itemType: Enum" style="text;strokeColor=none;fillColor=none;align=left;verticalAlign=top;rounded=0;spacingLeft=4;spacingRight=4;" parent="mvmTcCIGMzBXoCQXU83n-6" vertex="1">
          <mxGeometry y="112" width="160" height="30" as="geometry" />
        </mxCell>
        <mxCell id="mvmTcCIGMzBXoCQXU83n-9" value="Weight : Int" style="text;strokeColor=none;fillColor=none;align=left;verticalAlign=top;rounded=0;spacingLeft=4;spacingRight=4;" parent="mvmTcCIGMzBXoCQXU83n-6" vertex="1">
          <mxGeometry y="142" width="160" height="30" as="geometry" />
        </mxCell>
        <mxCell id="mvmTcCIGMzBXoCQXU83n-12" value="priority : Int" style="text;strokeColor=none;fillColor=none;align=left;verticalAlign=top;rounded=0;spacingLeft=4;spacingRight=4;" parent="mvmTcCIGMzBXoCQXU83n-6" vertex="1">
          <mxGeometry y="172" width="160" height="30" as="geometry" />
        </mxCell>
        <mxCell id="mvmTcCIGMzBXoCQXU83n-32" value="desc : String" style="text;align=left;verticalAlign=top;spacingLeft=4;spacingRight=4;overflow=hidden;rotatable=0;points=[[0,0.5],[1,0.5]];portConstraint=eastwest;" parent="mvmTcCIGMzBXoCQXU83n-6" vertex="1">
          <mxGeometry y="202" width="160" height="26" as="geometry" />
        </mxCell>
        <mxCell id="mvmTcCIGMzBXoCQXU83n-11" value="" style="line;html=1;strokeWidth=1;align=left;verticalAlign=middle;spacingTop=-1;spacingLeft=3;spacingRight=3;rotatable=0;labelPosition=right;points=[];portConstraint=eastwest;" parent="mvmTcCIGMzBXoCQXU83n-6" vertex="1">
          <mxGeometry y="228" width="160" height="28" as="geometry" />
        </mxCell>
        <mxCell id="mvmTcCIGMzBXoCQXU83n-13" value="Armour" style="swimlane;fontStyle=2;align=center;verticalAlign=top;childLayout=stackLayout;horizontal=1;startSize=26;horizontalStack=0;resizeParent=1;resizeLast=0;collapsible=1;marginBottom=0;rounded=0;shadow=0;strokeWidth=1;" parent="WIyWlLk6GJQsqaUBKTNV-1" vertex="1">
          <mxGeometry x="667" y="968" width="160" height="256" as="geometry">
            <mxRectangle x="230" y="140" width="160" height="26" as="alternateBounds" />
          </mxGeometry>
        </mxCell>
        <mxCell id="mvmTcCIGMzBXoCQXU83n-14" value="armId : Int" style="text;strokeColor=none;fillColor=none;align=left;verticalAlign=top;rounded=0;spacingLeft=4;spacingRight=4;" parent="mvmTcCIGMzBXoCQXU83n-13" vertex="1">
          <mxGeometry y="26" width="160" height="30" as="geometry" />
        </mxCell>
        <mxCell id="mvmTcCIGMzBXoCQXU83n-15" value="Name : String" style="text;align=left;verticalAlign=top;spacingLeft=4;spacingRight=4;overflow=hidden;rotatable=0;points=[[0,0.5],[1,0.5]];portConstraint=eastwest;" parent="mvmTcCIGMzBXoCQXU83n-13" vertex="1">
          <mxGeometry y="56" width="160" height="26" as="geometry" />
        </mxCell>
        <mxCell id="mvmTcCIGMzBXoCQXU83n-37" value="defence : Int" style="text;strokeColor=none;fillColor=none;align=left;verticalAlign=top;rounded=0;spacingLeft=4;spacingRight=4;" parent="mvmTcCIGMzBXoCQXU83n-13" vertex="1">
          <mxGeometry y="82" width="160" height="30" as="geometry" />
        </mxCell>
        <mxCell id="mvmTcCIGMzBXoCQXU83n-35" value="itemType: Enum" style="text;strokeColor=none;fillColor=none;align=left;verticalAlign=top;rounded=0;spacingLeft=4;spacingRight=4;" parent="mvmTcCIGMzBXoCQXU83n-13" vertex="1">
          <mxGeometry y="112" width="160" height="30" as="geometry" />
        </mxCell>
        <mxCell id="mvmTcCIGMzBXoCQXU83n-16" value="Weight : Int" style="text;strokeColor=none;fillColor=none;align=left;verticalAlign=top;rounded=0;spacingLeft=4;spacingRight=4;" parent="mvmTcCIGMzBXoCQXU83n-13" vertex="1">
          <mxGeometry y="142" width="160" height="30" as="geometry" />
        </mxCell>
        <mxCell id="mvmTcCIGMzBXoCQXU83n-17" value="priority : Int" style="text;strokeColor=none;fillColor=none;align=left;verticalAlign=top;rounded=0;spacingLeft=4;spacingRight=4;" parent="mvmTcCIGMzBXoCQXU83n-13" vertex="1">
          <mxGeometry y="172" width="160" height="30" as="geometry" />
        </mxCell>
        <mxCell id="mvmTcCIGMzBXoCQXU83n-31" value="desc : String" style="text;align=left;verticalAlign=top;spacingLeft=4;spacingRight=4;overflow=hidden;rotatable=0;points=[[0,0.5],[1,0.5]];portConstraint=eastwest;" parent="mvmTcCIGMzBXoCQXU83n-13" vertex="1">
          <mxGeometry y="202" width="160" height="26" as="geometry" />
        </mxCell>
        <mxCell id="mvmTcCIGMzBXoCQXU83n-18" value="" style="line;html=1;strokeWidth=1;align=left;verticalAlign=middle;spacingTop=-1;spacingLeft=3;spacingRight=3;rotatable=0;labelPosition=right;points=[];portConstraint=eastwest;" parent="mvmTcCIGMzBXoCQXU83n-13" vertex="1">
          <mxGeometry y="228" width="160" height="28" as="geometry" />
        </mxCell>
        <mxCell id="mvmTcCIGMzBXoCQXU83n-22" value="Projectile" style="swimlane;fontStyle=2;align=center;verticalAlign=top;childLayout=stackLayout;horizontal=1;startSize=26;horizontalStack=0;resizeParent=1;resizeLast=0;collapsible=1;marginBottom=0;rounded=0;shadow=0;strokeWidth=1;" parent="WIyWlLk6GJQsqaUBKTNV-1" vertex="1">
          <mxGeometry x="890" y="964" width="100" height="260" as="geometry">
            <mxRectangle x="230" y="140" width="160" height="26" as="alternateBounds" />
          </mxGeometry>
        </mxCell>
        <mxCell id="mvmTcCIGMzBXoCQXU83n-23" value="itemId : Int" style="text;strokeColor=none;fillColor=none;align=left;verticalAlign=top;rounded=0;spacingLeft=4;spacingRight=4;" parent="mvmTcCIGMzBXoCQXU83n-22" vertex="1">
          <mxGeometry y="26" width="100" height="30" as="geometry" />
        </mxCell>
        <mxCell id="mvmTcCIGMzBXoCQXU83n-24" value="Name : String" style="text;align=left;verticalAlign=top;spacingLeft=4;spacingRight=4;overflow=hidden;rotatable=0;points=[[0,0.5],[1,0.5]];portConstraint=eastwest;" parent="mvmTcCIGMzBXoCQXU83n-22" vertex="1">
          <mxGeometry y="56" width="100" height="26" as="geometry" />
        </mxCell>
        <mxCell id="mvmTcCIGMzBXoCQXU83n-38" value="attack : Int" style="text;strokeColor=none;fillColor=none;align=left;verticalAlign=top;rounded=0;spacingLeft=4;spacingRight=4;" parent="mvmTcCIGMzBXoCQXU83n-22" vertex="1">
          <mxGeometry y="82" width="100" height="30" as="geometry" />
        </mxCell>
        <mxCell id="mvmTcCIGMzBXoCQXU83n-34" value="itemType: Enum" style="text;strokeColor=none;fillColor=none;align=left;verticalAlign=top;rounded=0;spacingLeft=4;spacingRight=4;" parent="mvmTcCIGMzBXoCQXU83n-22" vertex="1">
          <mxGeometry y="112" width="100" height="30" as="geometry" />
        </mxCell>
        <mxCell id="mvmTcCIGMzBXoCQXU83n-25" value="Weight : Int" style="text;strokeColor=none;fillColor=none;align=left;verticalAlign=top;rounded=0;spacingLeft=4;spacingRight=4;" parent="mvmTcCIGMzBXoCQXU83n-22" vertex="1">
          <mxGeometry y="142" width="100" height="30" as="geometry" />
        </mxCell>
        <mxCell id="mvmTcCIGMzBXoCQXU83n-26" value="priority : Int" style="text;strokeColor=none;fillColor=none;align=left;verticalAlign=top;rounded=0;spacingLeft=4;spacingRight=4;" parent="mvmTcCIGMzBXoCQXU83n-22" vertex="1">
          <mxGeometry y="172" width="100" height="30" as="geometry" />
        </mxCell>
        <mxCell id="mvmTcCIGMzBXoCQXU83n-30" value="desc : String" style="text;align=left;verticalAlign=top;spacingLeft=4;spacingRight=4;overflow=hidden;rotatable=0;points=[[0,0.5],[1,0.5]];portConstraint=eastwest;" parent="mvmTcCIGMzBXoCQXU83n-22" vertex="1">
          <mxGeometry y="202" width="100" height="26" as="geometry" />
        </mxCell>
        <mxCell id="mvmTcCIGMzBXoCQXU83n-27" value="" style="line;html=1;strokeWidth=1;align=left;verticalAlign=middle;spacingTop=-1;spacingLeft=3;spacingRight=3;rotatable=0;labelPosition=right;points=[];portConstraint=eastwest;" parent="mvmTcCIGMzBXoCQXU83n-22" vertex="1">
          <mxGeometry y="228" width="100" height="28" as="geometry" />
        </mxCell>
        <mxCell id="mvmTcCIGMzBXoCQXU83n-28" style="edgeStyle=orthogonalEdgeStyle;rounded=0;orthogonalLoop=1;jettySize=auto;html=1;endArrow=block;endFill=0;endSize=10;exitX=0.25;exitY=1;exitDx=0;exitDy=0;" parent="WIyWlLk6GJQsqaUBKTNV-1" source="mvmTcCIGMzBXoCQXU83n-0" edge="1">
          <mxGeometry relative="1" as="geometry">
            <mxPoint x="1120" y="894" as="sourcePoint" />
            <mxPoint x="940" y="834" as="targetPoint" />
            <Array as="points">
              <mxPoint x="1185" y="890" />
              <mxPoint x="1185" y="914" />
              <mxPoint x="940" y="914" />
            </Array>
          </mxGeometry>
        </mxCell>
        <mxCell id="mvmTcCIGMzBXoCQXU83n-39" value="Ammo" style="swimlane;fontStyle=2;align=center;verticalAlign=top;childLayout=stackLayout;horizontal=1;startSize=26;horizontalStack=0;resizeParent=1;resizeLast=0;collapsible=1;marginBottom=0;rounded=0;shadow=0;strokeWidth=1;" parent="WIyWlLk6GJQsqaUBKTNV-1" vertex="1">
          <mxGeometry x="1100" y="964" width="150" height="230" as="geometry">
            <mxRectangle x="230" y="140" width="160" height="26" as="alternateBounds" />
          </mxGeometry>
        </mxCell>
        <mxCell id="mvmTcCIGMzBXoCQXU83n-40" value="itemId : Int" style="text;strokeColor=none;fillColor=none;align=left;verticalAlign=top;rounded=0;spacingLeft=4;spacingRight=4;" parent="mvmTcCIGMzBXoCQXU83n-39" vertex="1">
          <mxGeometry y="26" width="150" height="30" as="geometry" />
        </mxCell>
        <mxCell id="mvmTcCIGMzBXoCQXU83n-41" value="Name : String" style="text;align=left;verticalAlign=top;spacingLeft=4;spacingRight=4;overflow=hidden;rotatable=0;points=[[0,0.5],[1,0.5]];portConstraint=eastwest;" parent="mvmTcCIGMzBXoCQXU83n-39" vertex="1">
          <mxGeometry y="56" width="150" height="26" as="geometry" />
        </mxCell>
        <mxCell id="mvmTcCIGMzBXoCQXU83n-42" value="damage : Int" style="text;strokeColor=none;fillColor=none;align=left;verticalAlign=top;rounded=0;spacingLeft=4;spacingRight=4;" parent="mvmTcCIGMzBXoCQXU83n-39" vertex="1">
          <mxGeometry y="82" width="150" height="30" as="geometry" />
        </mxCell>
        <mxCell id="mvmTcCIGMzBXoCQXU83n-44" value="Weight : Int" style="text;strokeColor=none;fillColor=none;align=left;verticalAlign=top;rounded=0;spacingLeft=4;spacingRight=4;" parent="mvmTcCIGMzBXoCQXU83n-39" vertex="1">
          <mxGeometry y="112" width="150" height="30" as="geometry" />
        </mxCell>
        <mxCell id="mvmTcCIGMzBXoCQXU83n-45" value="assignedWeapon : Enum" style="text;strokeColor=none;fillColor=none;align=left;verticalAlign=top;rounded=0;spacingLeft=4;spacingRight=4;" parent="mvmTcCIGMzBXoCQXU83n-39" vertex="1">
          <mxGeometry y="142" width="150" height="30" as="geometry" />
        </mxCell>
        <mxCell id="mvmTcCIGMzBXoCQXU83n-46" value="desc : String" style="text;align=left;verticalAlign=top;spacingLeft=4;spacingRight=4;overflow=hidden;rotatable=0;points=[[0,0.5],[1,0.5]];portConstraint=eastwest;" parent="mvmTcCIGMzBXoCQXU83n-39" vertex="1">
          <mxGeometry y="172" width="150" height="26" as="geometry" />
        </mxCell>
        <mxCell id="mvmTcCIGMzBXoCQXU83n-47" value="" style="line;html=1;strokeWidth=1;align=left;verticalAlign=middle;spacingTop=-1;spacingLeft=3;spacingRight=3;rotatable=0;labelPosition=right;points=[];portConstraint=eastwest;" parent="mvmTcCIGMzBXoCQXU83n-39" vertex="1">
          <mxGeometry y="198" width="150" height="28" as="geometry" />
        </mxCell>
        <mxCell id="mvmTcCIGMzBXoCQXU83n-50" value="Arrow" style="swimlane;fontStyle=2;align=center;verticalAlign=top;childLayout=stackLayout;horizontal=1;startSize=26;horizontalStack=0;resizeParent=1;resizeLast=0;collapsible=1;marginBottom=0;rounded=0;shadow=0;strokeWidth=1;" parent="WIyWlLk6GJQsqaUBKTNV-1" vertex="1">
          <mxGeometry x="1290" y="984" width="90" height="200" as="geometry">
            <mxRectangle x="230" y="140" width="160" height="26" as="alternateBounds" />
          </mxGeometry>
        </mxCell>
        <mxCell id="mvmTcCIGMzBXoCQXU83n-51" value="itemId : Int" style="text;strokeColor=none;fillColor=none;align=left;verticalAlign=top;rounded=0;spacingLeft=4;spacingRight=4;" parent="mvmTcCIGMzBXoCQXU83n-50" vertex="1">
          <mxGeometry y="26" width="90" height="30" as="geometry" />
        </mxCell>
        <mxCell id="mvmTcCIGMzBXoCQXU83n-52" value="Name : String" style="text;align=left;verticalAlign=top;spacingLeft=4;spacingRight=4;overflow=hidden;rotatable=0;points=[[0,0.5],[1,0.5]];portConstraint=eastwest;" parent="mvmTcCIGMzBXoCQXU83n-50" vertex="1">
          <mxGeometry y="56" width="90" height="26" as="geometry" />
        </mxCell>
        <mxCell id="mvmTcCIGMzBXoCQXU83n-53" value="damage : Int" style="text;strokeColor=none;fillColor=none;align=left;verticalAlign=top;rounded=0;spacingLeft=4;spacingRight=4;" parent="mvmTcCIGMzBXoCQXU83n-50" vertex="1">
          <mxGeometry y="82" width="90" height="30" as="geometry" />
        </mxCell>
        <mxCell id="mvmTcCIGMzBXoCQXU83n-54" value="Weight : Int" style="text;strokeColor=none;fillColor=none;align=left;verticalAlign=top;rounded=0;spacingLeft=4;spacingRight=4;" parent="mvmTcCIGMzBXoCQXU83n-50" vertex="1">
          <mxGeometry y="112" width="90" height="30" as="geometry" />
        </mxCell>
        <mxCell id="mvmTcCIGMzBXoCQXU83n-56" value="desc : String" style="text;align=left;verticalAlign=top;spacingLeft=4;spacingRight=4;overflow=hidden;rotatable=0;points=[[0,0.5],[1,0.5]];portConstraint=eastwest;" parent="mvmTcCIGMzBXoCQXU83n-50" vertex="1">
          <mxGeometry y="142" width="90" height="26" as="geometry" />
        </mxCell>
        <mxCell id="mvmTcCIGMzBXoCQXU83n-57" value="" style="line;html=1;strokeWidth=1;align=left;verticalAlign=middle;spacingTop=-1;spacingLeft=3;spacingRight=3;rotatable=0;labelPosition=right;points=[];portConstraint=eastwest;" parent="mvmTcCIGMzBXoCQXU83n-50" vertex="1">
          <mxGeometry y="168" width="90" height="28" as="geometry" />
        </mxCell>
        <mxCell id="mvmTcCIGMzBXoCQXU83n-58" value="Bolt" style="swimlane;fontStyle=2;align=center;verticalAlign=top;childLayout=stackLayout;horizontal=1;startSize=26;horizontalStack=0;resizeParent=1;resizeLast=0;collapsible=1;marginBottom=0;rounded=0;shadow=0;strokeWidth=1;" parent="WIyWlLk6GJQsqaUBKTNV-1" vertex="1">
          <mxGeometry x="1510" y="984" width="90" height="200" as="geometry">
            <mxRectangle x="230" y="140" width="160" height="26" as="alternateBounds" />
          </mxGeometry>
        </mxCell>
        <mxCell id="mvmTcCIGMzBXoCQXU83n-59" value="itemId : Int" style="text;strokeColor=none;fillColor=none;align=left;verticalAlign=top;rounded=0;spacingLeft=4;spacingRight=4;" parent="mvmTcCIGMzBXoCQXU83n-58" vertex="1">
          <mxGeometry y="26" width="90" height="30" as="geometry" />
        </mxCell>
        <mxCell id="mvmTcCIGMzBXoCQXU83n-60" value="Name : String" style="text;align=left;verticalAlign=top;spacingLeft=4;spacingRight=4;overflow=hidden;rotatable=0;points=[[0,0.5],[1,0.5]];portConstraint=eastwest;" parent="mvmTcCIGMzBXoCQXU83n-58" vertex="1">
          <mxGeometry y="56" width="90" height="26" as="geometry" />
        </mxCell>
        <mxCell id="mvmTcCIGMzBXoCQXU83n-61" value="damage : Int" style="text;strokeColor=none;fillColor=none;align=left;verticalAlign=top;rounded=0;spacingLeft=4;spacingRight=4;" parent="mvmTcCIGMzBXoCQXU83n-58" vertex="1">
          <mxGeometry y="82" width="90" height="30" as="geometry" />
        </mxCell>
        <mxCell id="mvmTcCIGMzBXoCQXU83n-62" value="Weight : Int" style="text;strokeColor=none;fillColor=none;align=left;verticalAlign=top;rounded=0;spacingLeft=4;spacingRight=4;" parent="mvmTcCIGMzBXoCQXU83n-58" vertex="1">
          <mxGeometry y="112" width="90" height="30" as="geometry" />
        </mxCell>
        <mxCell id="mvmTcCIGMzBXoCQXU83n-63" value="desc : String" style="text;align=left;verticalAlign=top;spacingLeft=4;spacingRight=4;overflow=hidden;rotatable=0;points=[[0,0.5],[1,0.5]];portConstraint=eastwest;" parent="mvmTcCIGMzBXoCQXU83n-58" vertex="1">
          <mxGeometry y="142" width="90" height="26" as="geometry" />
        </mxCell>
        <mxCell id="mvmTcCIGMzBXoCQXU83n-64" value="" style="line;html=1;strokeWidth=1;align=left;verticalAlign=middle;spacingTop=-1;spacingLeft=3;spacingRight=3;rotatable=0;labelPosition=right;points=[];portConstraint=eastwest;" parent="mvmTcCIGMzBXoCQXU83n-58" vertex="1">
          <mxGeometry y="168" width="90" height="28" as="geometry" />
        </mxCell>
        <mxCell id="mvmTcCIGMzBXoCQXU83n-65" value="Stone" style="swimlane;fontStyle=2;align=center;verticalAlign=top;childLayout=stackLayout;horizontal=1;startSize=26;horizontalStack=0;resizeParent=1;resizeLast=0;collapsible=1;marginBottom=0;rounded=0;shadow=0;strokeWidth=1;" parent="WIyWlLk6GJQsqaUBKTNV-1" vertex="1">
          <mxGeometry x="1400" y="984" width="90" height="200" as="geometry">
            <mxRectangle x="230" y="140" width="160" height="26" as="alternateBounds" />
          </mxGeometry>
        </mxCell>
        <mxCell id="mvmTcCIGMzBXoCQXU83n-66" value="itemId : Int" style="text;strokeColor=none;fillColor=none;align=left;verticalAlign=top;rounded=0;spacingLeft=4;spacingRight=4;" parent="mvmTcCIGMzBXoCQXU83n-65" vertex="1">
          <mxGeometry y="26" width="90" height="30" as="geometry" />
        </mxCell>
        <mxCell id="mvmTcCIGMzBXoCQXU83n-67" value="Name : String" style="text;align=left;verticalAlign=top;spacingLeft=4;spacingRight=4;overflow=hidden;rotatable=0;points=[[0,0.5],[1,0.5]];portConstraint=eastwest;" parent="mvmTcCIGMzBXoCQXU83n-65" vertex="1">
          <mxGeometry y="56" width="90" height="26" as="geometry" />
        </mxCell>
        <mxCell id="mvmTcCIGMzBXoCQXU83n-68" value="damage : Int" style="text;strokeColor=none;fillColor=none;align=left;verticalAlign=top;rounded=0;spacingLeft=4;spacingRight=4;" parent="mvmTcCIGMzBXoCQXU83n-65" vertex="1">
          <mxGeometry y="82" width="90" height="30" as="geometry" />
        </mxCell>
        <mxCell id="mvmTcCIGMzBXoCQXU83n-69" value="Weight : Int" style="text;strokeColor=none;fillColor=none;align=left;verticalAlign=top;rounded=0;spacingLeft=4;spacingRight=4;" parent="mvmTcCIGMzBXoCQXU83n-65" vertex="1">
          <mxGeometry y="112" width="90" height="30" as="geometry" />
        </mxCell>
        <mxCell id="mvmTcCIGMzBXoCQXU83n-70" value="desc : String" style="text;align=left;verticalAlign=top;spacingLeft=4;spacingRight=4;overflow=hidden;rotatable=0;points=[[0,0.5],[1,0.5]];portConstraint=eastwest;" parent="mvmTcCIGMzBXoCQXU83n-65" vertex="1">
          <mxGeometry y="142" width="90" height="26" as="geometry" />
        </mxCell>
        <mxCell id="mvmTcCIGMzBXoCQXU83n-71" value="" style="line;html=1;strokeWidth=1;align=left;verticalAlign=middle;spacingTop=-1;spacingLeft=3;spacingRight=3;rotatable=0;labelPosition=right;points=[];portConstraint=eastwest;" parent="mvmTcCIGMzBXoCQXU83n-65" vertex="1">
          <mxGeometry y="168" width="90" height="28" as="geometry" />
        </mxCell>
        <mxCell id="mvmTcCIGMzBXoCQXU83n-76" style="edgeStyle=orthogonalEdgeStyle;rounded=0;orthogonalLoop=1;jettySize=auto;html=1;endArrow=block;endFill=0;endSize=10;exitX=0.5;exitY=0;exitDx=0;exitDy=0;entryX=0.5;entryY=0;entryDx=0;entryDy=0;" parent="WIyWlLk6GJQsqaUBKTNV-1" source="mvmTcCIGMzBXoCQXU83n-58" edge="1" target="mvmTcCIGMzBXoCQXU83n-39">
          <mxGeometry relative="1" as="geometry">
            <mxPoint x="1680" y="1200" as="sourcePoint" />
            <mxPoint x="1170" y="970" as="targetPoint" />
            <Array as="points">
              <mxPoint x="1555" y="934" />
              <mxPoint x="1175" y="934" />
            </Array>
          </mxGeometry>
        </mxCell>
        <mxCell id="mvmTcCIGMzBXoCQXU83n-77" style="edgeStyle=orthogonalEdgeStyle;rounded=0;orthogonalLoop=1;jettySize=auto;html=1;endArrow=block;endFill=0;endSize=10;exitX=0.5;exitY=0;exitDx=0;exitDy=0;entryX=0.5;entryY=0;entryDx=0;entryDy=0;" parent="WIyWlLk6GJQsqaUBKTNV-1" source="mvmTcCIGMzBXoCQXU83n-50" edge="1" target="mvmTcCIGMzBXoCQXU83n-39">
          <mxGeometry relative="1" as="geometry">
            <mxPoint x="1550" y="902" as="sourcePoint" />
            <mxPoint x="1180" y="964" as="targetPoint" />
            <Array as="points">
              <mxPoint x="1335" y="934" />
              <mxPoint x="1175" y="934" />
            </Array>
          </mxGeometry>
        </mxCell>
        <mxCell id="mvmTcCIGMzBXoCQXU83n-78" style="edgeStyle=orthogonalEdgeStyle;rounded=0;orthogonalLoop=1;jettySize=auto;html=1;endArrow=block;endFill=0;endSize=10;exitX=0.5;exitY=0;exitDx=0;exitDy=0;entryX=0.5;entryY=0;entryDx=0;entryDy=0;" parent="WIyWlLk6GJQsqaUBKTNV-1" source="mvmTcCIGMzBXoCQXU83n-65" target="mvmTcCIGMzBXoCQXU83n-39" edge="1">
          <mxGeometry relative="1" as="geometry">
            <mxPoint x="1560" y="912" as="sourcePoint" />
            <mxPoint x="1340" y="944" as="targetPoint" />
            <Array as="points">
              <mxPoint x="1445" y="934" />
              <mxPoint x="1175" y="934" />
            </Array>
          </mxGeometry>
        </mxCell>
        <mxCell id="mvmTcCIGMzBXoCQXU83n-79" style="edgeStyle=orthogonalEdgeStyle;rounded=0;orthogonalLoop=1;jettySize=auto;html=1;endArrow=block;endFill=0;endSize=10;exitX=0;exitY=0.5;exitDx=0;exitDy=0;entryX=1;entryY=0.5;entryDx=0;entryDy=0;" parent="WIyWlLk6GJQsqaUBKTNV-1" source="mvmTcCIGMzBXoCQXU83n-40" target="mvmTcCIGMzBXoCQXU83n-23" edge="1">
          <mxGeometry relative="1" as="geometry">
            <mxPoint x="1570" y="922" as="sourcePoint" />
            <mxPoint x="1312.08" y="973.8900000000001" as="targetPoint" />
            <Array as="points">
              <mxPoint x="1040" y="1005" />
              <mxPoint x="1040" y="1005" />
            </Array>
          </mxGeometry>
        </mxCell>
        <mxCell id="mvmTcCIGMzBXoCQXU83n-80" style="edgeStyle=orthogonalEdgeStyle;rounded=0;orthogonalLoop=1;jettySize=auto;html=1;endArrow=block;endFill=0;endSize=10;exitX=0.5;exitY=0;exitDx=0;exitDy=0;" parent="WIyWlLk6GJQsqaUBKTNV-1" source="mvmTcCIGMzBXoCQXU83n-22" edge="1">
          <mxGeometry relative="1" as="geometry">
            <mxPoint x="910" y="934" as="sourcePoint" />
            <mxPoint x="940" y="834" as="targetPoint" />
            <Array as="points" />
          </mxGeometry>
        </mxCell>
        <mxCell id="mvmTcCIGMzBXoCQXU83n-81" style="edgeStyle=orthogonalEdgeStyle;rounded=0;orthogonalLoop=1;jettySize=auto;html=1;endArrow=block;endFill=0;endSize=10;exitX=1;exitY=0.5;exitDx=0;exitDy=0;" parent="WIyWlLk6GJQsqaUBKTNV-1" source="mvmTcCIGMzBXoCQXU83n-14" edge="1">
          <mxGeometry relative="1" as="geometry">
            <mxPoint x="820" y="694" as="sourcePoint" />
            <mxPoint x="940" y="834" as="targetPoint" />
            <Array as="points">
              <mxPoint x="840" y="1009" />
              <mxPoint x="840" y="914" />
              <mxPoint x="940" y="914" />
            </Array>
          </mxGeometry>
        </mxCell>
        <mxCell id="mvmTcCIGMzBXoCQXU83n-82" value="Toss" style="swimlane;fontStyle=2;align=center;verticalAlign=top;childLayout=stackLayout;horizontal=1;startSize=26;horizontalStack=0;resizeParent=1;resizeLast=0;collapsible=1;marginBottom=0;rounded=0;shadow=0;strokeWidth=1;" parent="WIyWlLk6GJQsqaUBKTNV-1" vertex="1">
          <mxGeometry x="1100" y="1230" width="90" height="200" as="geometry">
            <mxRectangle x="230" y="140" width="160" height="26" as="alternateBounds" />
          </mxGeometry>
        </mxCell>
        <mxCell id="mvmTcCIGMzBXoCQXU83n-83" value="itemId : Int" style="text;strokeColor=none;fillColor=none;align=left;verticalAlign=top;rounded=0;spacingLeft=4;spacingRight=4;" parent="mvmTcCIGMzBXoCQXU83n-82" vertex="1">
          <mxGeometry y="26" width="90" height="30" as="geometry" />
        </mxCell>
        <mxCell id="mvmTcCIGMzBXoCQXU83n-84" value="Name : String" style="text;align=left;verticalAlign=top;spacingLeft=4;spacingRight=4;overflow=hidden;rotatable=0;points=[[0,0.5],[1,0.5]];portConstraint=eastwest;" parent="mvmTcCIGMzBXoCQXU83n-82" vertex="1">
          <mxGeometry y="56" width="90" height="26" as="geometry" />
        </mxCell>
        <mxCell id="mvmTcCIGMzBXoCQXU83n-85" value="damage : Int" style="text;strokeColor=none;fillColor=none;align=left;verticalAlign=top;rounded=0;spacingLeft=4;spacingRight=4;" parent="mvmTcCIGMzBXoCQXU83n-82" vertex="1">
          <mxGeometry y="82" width="90" height="30" as="geometry" />
        </mxCell>
        <mxCell id="mvmTcCIGMzBXoCQXU83n-86" value="Weight : Int" style="text;strokeColor=none;fillColor=none;align=left;verticalAlign=top;rounded=0;spacingLeft=4;spacingRight=4;" parent="mvmTcCIGMzBXoCQXU83n-82" vertex="1">
          <mxGeometry y="112" width="90" height="30" as="geometry" />
        </mxCell>
        <mxCell id="mvmTcCIGMzBXoCQXU83n-87" value="desc : String" style="text;align=left;verticalAlign=top;spacingLeft=4;spacingRight=4;overflow=hidden;rotatable=0;points=[[0,0.5],[1,0.5]];portConstraint=eastwest;" parent="mvmTcCIGMzBXoCQXU83n-82" vertex="1">
          <mxGeometry y="142" width="90" height="26" as="geometry" />
        </mxCell>
        <mxCell id="mvmTcCIGMzBXoCQXU83n-88" value="" style="line;html=1;strokeWidth=1;align=left;verticalAlign=middle;spacingTop=-1;spacingLeft=3;spacingRight=3;rotatable=0;labelPosition=right;points=[];portConstraint=eastwest;" parent="mvmTcCIGMzBXoCQXU83n-82" vertex="1">
          <mxGeometry y="168" width="90" height="28" as="geometry" />
        </mxCell>
        <mxCell id="mvmTcCIGMzBXoCQXU83n-89" style="edgeStyle=orthogonalEdgeStyle;rounded=0;orthogonalLoop=1;jettySize=auto;html=1;endArrow=block;endFill=0;endSize=10;exitX=0;exitY=0.5;exitDx=0;exitDy=0;entryX=1;entryY=0.5;entryDx=0;entryDy=0;" parent="WIyWlLk6GJQsqaUBKTNV-1" source="mvmTcCIGMzBXoCQXU83n-83" target="mvmTcCIGMzBXoCQXU83n-23" edge="1">
          <mxGeometry relative="1" as="geometry">
            <mxPoint x="1110" y="1015" as="sourcePoint" />
            <mxPoint x="1030" y="1005" as="targetPoint" />
            <Array as="points">
              <mxPoint x="1070" y="1271" />
              <mxPoint x="1070" y="1005" />
            </Array>
          </mxGeometry>
        </mxCell>
        <mxCell id="mvmTcCIGMzBXoCQXU83n-90" value="Hat" style="swimlane;fontStyle=2;align=center;verticalAlign=top;childLayout=stackLayout;horizontal=1;startSize=26;horizontalStack=0;resizeParent=1;resizeLast=0;collapsible=1;marginBottom=0;rounded=0;shadow=0;strokeWidth=1;" parent="WIyWlLk6GJQsqaUBKTNV-1" vertex="1">
          <mxGeometry x="600" y="1350" width="90" height="200" as="geometry">
            <mxRectangle x="230" y="140" width="160" height="26" as="alternateBounds" />
          </mxGeometry>
        </mxCell>
        <mxCell id="mvmTcCIGMzBXoCQXU83n-91" value="itemId : Int" style="text;strokeColor=none;fillColor=none;align=left;verticalAlign=top;rounded=0;spacingLeft=4;spacingRight=4;" parent="mvmTcCIGMzBXoCQXU83n-90" vertex="1">
          <mxGeometry y="26" width="90" height="30" as="geometry" />
        </mxCell>
        <mxCell id="mvmTcCIGMzBXoCQXU83n-92" value="Name : String" style="text;align=left;verticalAlign=top;spacingLeft=4;spacingRight=4;overflow=hidden;rotatable=0;points=[[0,0.5],[1,0.5]];portConstraint=eastwest;" parent="mvmTcCIGMzBXoCQXU83n-90" vertex="1">
          <mxGeometry y="56" width="90" height="26" as="geometry" />
        </mxCell>
        <mxCell id="mvmTcCIGMzBXoCQXU83n-93" value="defence : Int" style="text;strokeColor=none;fillColor=none;align=left;verticalAlign=top;rounded=0;spacingLeft=4;spacingRight=4;" parent="mvmTcCIGMzBXoCQXU83n-90" vertex="1">
          <mxGeometry y="82" width="90" height="30" as="geometry" />
        </mxCell>
        <mxCell id="mvmTcCIGMzBXoCQXU83n-94" value="Weight : Int" style="text;strokeColor=none;fillColor=none;align=left;verticalAlign=top;rounded=0;spacingLeft=4;spacingRight=4;" parent="mvmTcCIGMzBXoCQXU83n-90" vertex="1">
          <mxGeometry y="112" width="90" height="30" as="geometry" />
        </mxCell>
        <mxCell id="mvmTcCIGMzBXoCQXU83n-95" value="desc : String" style="text;align=left;verticalAlign=top;spacingLeft=4;spacingRight=4;overflow=hidden;rotatable=0;points=[[0,0.5],[1,0.5]];portConstraint=eastwest;" parent="mvmTcCIGMzBXoCQXU83n-90" vertex="1">
          <mxGeometry y="142" width="90" height="26" as="geometry" />
        </mxCell>
        <mxCell id="mvmTcCIGMzBXoCQXU83n-96" value="" style="line;html=1;strokeWidth=1;align=left;verticalAlign=middle;spacingTop=-1;spacingLeft=3;spacingRight=3;rotatable=0;labelPosition=right;points=[];portConstraint=eastwest;" parent="mvmTcCIGMzBXoCQXU83n-90" vertex="1">
          <mxGeometry y="168" width="90" height="28" as="geometry" />
        </mxCell>
        <mxCell id="mvmTcCIGMzBXoCQXU83n-97" value="Shirt" style="swimlane;fontStyle=2;align=center;verticalAlign=top;childLayout=stackLayout;horizontal=1;startSize=26;horizontalStack=0;resizeParent=1;resizeLast=0;collapsible=1;marginBottom=0;rounded=0;shadow=0;strokeWidth=1;" parent="WIyWlLk6GJQsqaUBKTNV-1" vertex="1">
          <mxGeometry x="700.5" y="1350" width="93" height="200" as="geometry">
            <mxRectangle x="230" y="140" width="160" height="26" as="alternateBounds" />
          </mxGeometry>
        </mxCell>
        <mxCell id="mvmTcCIGMzBXoCQXU83n-98" value="itemId : Int" style="text;strokeColor=none;fillColor=none;align=left;verticalAlign=top;rounded=0;spacingLeft=4;spacingRight=4;" parent="mvmTcCIGMzBXoCQXU83n-97" vertex="1">
          <mxGeometry y="26" width="93" height="30" as="geometry" />
        </mxCell>
        <mxCell id="mvmTcCIGMzBXoCQXU83n-99" value="Name : String" style="text;align=left;verticalAlign=top;spacingLeft=4;spacingRight=4;overflow=hidden;rotatable=0;points=[[0,0.5],[1,0.5]];portConstraint=eastwest;" parent="mvmTcCIGMzBXoCQXU83n-97" vertex="1">
          <mxGeometry y="56" width="93" height="26" as="geometry" />
        </mxCell>
        <mxCell id="mvmTcCIGMzBXoCQXU83n-100" value="defence : Int" style="text;strokeColor=none;fillColor=none;align=left;verticalAlign=top;rounded=0;spacingLeft=4;spacingRight=4;" parent="mvmTcCIGMzBXoCQXU83n-97" vertex="1">
          <mxGeometry y="82" width="93" height="30" as="geometry" />
        </mxCell>
        <mxCell id="mvmTcCIGMzBXoCQXU83n-101" value="Weight : Int" style="text;strokeColor=none;fillColor=none;align=left;verticalAlign=top;rounded=0;spacingLeft=4;spacingRight=4;" parent="mvmTcCIGMzBXoCQXU83n-97" vertex="1">
          <mxGeometry y="112" width="93" height="30" as="geometry" />
        </mxCell>
        <mxCell id="mvmTcCIGMzBXoCQXU83n-102" value="desc : String" style="text;align=left;verticalAlign=top;spacingLeft=4;spacingRight=4;overflow=hidden;rotatable=0;points=[[0,0.5],[1,0.5]];portConstraint=eastwest;" parent="mvmTcCIGMzBXoCQXU83n-97" vertex="1">
          <mxGeometry y="142" width="93" height="26" as="geometry" />
        </mxCell>
        <mxCell id="mvmTcCIGMzBXoCQXU83n-103" value="" style="line;html=1;strokeWidth=1;align=left;verticalAlign=middle;spacingTop=-1;spacingLeft=3;spacingRight=3;rotatable=0;labelPosition=right;points=[];portConstraint=eastwest;" parent="mvmTcCIGMzBXoCQXU83n-97" vertex="1">
          <mxGeometry y="168" width="93" height="28" as="geometry" />
        </mxCell>
        <mxCell id="mvmTcCIGMzBXoCQXU83n-104" value="Trousers" style="swimlane;fontStyle=2;align=center;verticalAlign=top;childLayout=stackLayout;horizontal=1;startSize=26;horizontalStack=0;resizeParent=1;resizeLast=0;collapsible=1;marginBottom=0;rounded=0;shadow=0;strokeWidth=1;" parent="WIyWlLk6GJQsqaUBKTNV-1" vertex="1">
          <mxGeometry x="800" y="1350" width="90" height="200" as="geometry">
            <mxRectangle x="230" y="140" width="160" height="26" as="alternateBounds" />
          </mxGeometry>
        </mxCell>
        <mxCell id="mvmTcCIGMzBXoCQXU83n-105" value="itemId : Int" style="text;strokeColor=none;fillColor=none;align=left;verticalAlign=top;rounded=0;spacingLeft=4;spacingRight=4;" parent="mvmTcCIGMzBXoCQXU83n-104" vertex="1">
          <mxGeometry y="26" width="90" height="30" as="geometry" />
        </mxCell>
        <mxCell id="mvmTcCIGMzBXoCQXU83n-106" value="Name : String" style="text;align=left;verticalAlign=top;spacingLeft=4;spacingRight=4;overflow=hidden;rotatable=0;points=[[0,0.5],[1,0.5]];portConstraint=eastwest;" parent="mvmTcCIGMzBXoCQXU83n-104" vertex="1">
          <mxGeometry y="56" width="90" height="26" as="geometry" />
        </mxCell>
        <mxCell id="mvmTcCIGMzBXoCQXU83n-107" value="defence : Int" style="text;strokeColor=none;fillColor=none;align=left;verticalAlign=top;rounded=0;spacingLeft=4;spacingRight=4;" parent="mvmTcCIGMzBXoCQXU83n-104" vertex="1">
          <mxGeometry y="82" width="90" height="30" as="geometry" />
        </mxCell>
        <mxCell id="mvmTcCIGMzBXoCQXU83n-108" value="Weight : Int" style="text;strokeColor=none;fillColor=none;align=left;verticalAlign=top;rounded=0;spacingLeft=4;spacingRight=4;" parent="mvmTcCIGMzBXoCQXU83n-104" vertex="1">
          <mxGeometry y="112" width="90" height="30" as="geometry" />
        </mxCell>
        <mxCell id="mvmTcCIGMzBXoCQXU83n-109" value="desc : String" style="text;align=left;verticalAlign=top;spacingLeft=4;spacingRight=4;overflow=hidden;rotatable=0;points=[[0,0.5],[1,0.5]];portConstraint=eastwest;" parent="mvmTcCIGMzBXoCQXU83n-104" vertex="1">
          <mxGeometry y="142" width="90" height="26" as="geometry" />
        </mxCell>
        <mxCell id="mvmTcCIGMzBXoCQXU83n-110" value="" style="line;html=1;strokeWidth=1;align=left;verticalAlign=middle;spacingTop=-1;spacingLeft=3;spacingRight=3;rotatable=0;labelPosition=right;points=[];portConstraint=eastwest;" parent="mvmTcCIGMzBXoCQXU83n-104" vertex="1">
          <mxGeometry y="168" width="90" height="28" as="geometry" />
        </mxCell>
        <mxCell id="mvmTcCIGMzBXoCQXU83n-111" style="edgeStyle=orthogonalEdgeStyle;rounded=0;orthogonalLoop=1;jettySize=auto;html=1;endArrow=block;endFill=0;endSize=10;exitX=0.5;exitY=0;exitDx=0;exitDy=0;entryX=0.5;entryY=1;entryDx=0;entryDy=0;" parent="WIyWlLk6GJQsqaUBKTNV-1" source="mvmTcCIGMzBXoCQXU83n-90" target="mvmTcCIGMzBXoCQXU83n-13" edge="1">
          <mxGeometry relative="1" as="geometry">
            <mxPoint x="527" y="1230" as="sourcePoint" />
            <mxPoint x="640" y="1055" as="targetPoint" />
            <Array as="points">
              <mxPoint x="645" y="1320" />
              <mxPoint x="747" y="1320" />
            </Array>
          </mxGeometry>
        </mxCell>
        <mxCell id="mvmTcCIGMzBXoCQXU83n-112" style="edgeStyle=orthogonalEdgeStyle;rounded=0;orthogonalLoop=1;jettySize=auto;html=1;endArrow=block;endFill=0;endSize=10;exitX=0.5;exitY=0;exitDx=0;exitDy=0;entryX=0.5;entryY=1;entryDx=0;entryDy=0;" parent="WIyWlLk6GJQsqaUBKTNV-1" source="mvmTcCIGMzBXoCQXU83n-104" target="mvmTcCIGMzBXoCQXU83n-13" edge="1">
          <mxGeometry relative="1" as="geometry">
            <mxPoint x="570" y="1270" as="sourcePoint" />
            <mxPoint x="780" y="1240" as="targetPoint" />
            <Array as="points">
              <mxPoint x="845" y="1320" />
              <mxPoint x="747" y="1320" />
            </Array>
          </mxGeometry>
        </mxCell>
        <mxCell id="mvmTcCIGMzBXoCQXU83n-113" style="edgeStyle=orthogonalEdgeStyle;rounded=0;orthogonalLoop=1;jettySize=auto;html=1;endArrow=block;endFill=0;endSize=10;entryX=0.5;entryY=1;entryDx=0;entryDy=0;exitX=0.5;exitY=0;exitDx=0;exitDy=0;" parent="WIyWlLk6GJQsqaUBKTNV-1" source="mvmTcCIGMzBXoCQXU83n-97" target="mvmTcCIGMzBXoCQXU83n-13" edge="1">
          <mxGeometry relative="1" as="geometry">
            <mxPoint x="747" y="1260" as="sourcePoint" />
            <mxPoint x="757" y="1234" as="targetPoint" />
            <Array as="points">
              <mxPoint x="747" y="1260" />
              <mxPoint x="747" y="1260" />
            </Array>
          </mxGeometry>
        </mxCell>
        <mxCell id="mvmTcCIGMzBXoCQXU83n-114" value="Spear" style="swimlane;fontStyle=2;align=center;verticalAlign=top;childLayout=stackLayout;horizontal=1;startSize=26;horizontalStack=0;resizeParent=1;resizeLast=0;collapsible=1;marginBottom=0;rounded=0;shadow=0;strokeWidth=1;" parent="WIyWlLk6GJQsqaUBKTNV-1" vertex="1">
          <mxGeometry x="530" y="660" width="90" height="200" as="geometry">
            <mxRectangle x="230" y="140" width="160" height="26" as="alternateBounds" />
          </mxGeometry>
        </mxCell>
        <mxCell id="mvmTcCIGMzBXoCQXU83n-115" value="wpIdÂ : Int" style="text;strokeColor=none;fillColor=none;align=left;verticalAlign=top;rounded=0;spacingLeft=4;spacingRight=4;" parent="mvmTcCIGMzBXoCQXU83n-114" vertex="1">
          <mxGeometry y="26" width="90" height="30" as="geometry" />
        </mxCell>
        <mxCell id="mvmTcCIGMzBXoCQXU83n-116" value="Name : String" style="text;align=left;verticalAlign=top;spacingLeft=4;spacingRight=4;overflow=hidden;rotatable=0;points=[[0,0.5],[1,0.5]];portConstraint=eastwest;" parent="mvmTcCIGMzBXoCQXU83n-114" vertex="1">
          <mxGeometry y="56" width="90" height="26" as="geometry" />
        </mxCell>
        <mxCell id="mvmTcCIGMzBXoCQXU83n-117" value="attack : Int" style="text;strokeColor=none;fillColor=none;align=left;verticalAlign=top;rounded=0;spacingLeft=4;spacingRight=4;" parent="mvmTcCIGMzBXoCQXU83n-114" vertex="1">
          <mxGeometry y="82" width="90" height="30" as="geometry" />
        </mxCell>
        <mxCell id="mvmTcCIGMzBXoCQXU83n-118" value="Weight : Int" style="text;strokeColor=none;fillColor=none;align=left;verticalAlign=top;rounded=0;spacingLeft=4;spacingRight=4;" parent="mvmTcCIGMzBXoCQXU83n-114" vertex="1">
          <mxGeometry y="112" width="90" height="30" as="geometry" />
        </mxCell>
        <mxCell id="mvmTcCIGMzBXoCQXU83n-119" value="desc : String" style="text;align=left;verticalAlign=top;spacingLeft=4;spacingRight=4;overflow=hidden;rotatable=0;points=[[0,0.5],[1,0.5]];portConstraint=eastwest;" parent="mvmTcCIGMzBXoCQXU83n-114" vertex="1">
          <mxGeometry y="142" width="90" height="26" as="geometry" />
        </mxCell>
        <mxCell id="mvmTcCIGMzBXoCQXU83n-120" value="" style="line;html=1;strokeWidth=1;align=left;verticalAlign=middle;spacingTop=-1;spacingLeft=3;spacingRight=3;rotatable=0;labelPosition=right;points=[];portConstraint=eastwest;" parent="mvmTcCIGMzBXoCQXU83n-114" vertex="1">
          <mxGeometry y="168" width="90" height="28" as="geometry" />
        </mxCell>
        <mxCell id="mvmTcCIGMzBXoCQXU83n-129" value="Sling" style="swimlane;fontStyle=2;align=center;verticalAlign=top;childLayout=stackLayout;horizontal=1;startSize=26;horizontalStack=0;resizeParent=1;resizeLast=0;collapsible=1;marginBottom=0;rounded=0;shadow=0;strokeWidth=1;" parent="WIyWlLk6GJQsqaUBKTNV-1" vertex="1">
          <mxGeometry x="530" y="1100" width="90" height="200" as="geometry">
            <mxRectangle x="230" y="140" width="160" height="26" as="alternateBounds" />
          </mxGeometry>
        </mxCell>
        <mxCell id="mvmTcCIGMzBXoCQXU83n-130" value="wpIdÂ : Int" style="text;strokeColor=none;fillColor=none;align=left;verticalAlign=top;rounded=0;spacingLeft=4;spacingRight=4;" parent="mvmTcCIGMzBXoCQXU83n-129" vertex="1">
          <mxGeometry y="26" width="90" height="30" as="geometry" />
        </mxCell>
        <mxCell id="mvmTcCIGMzBXoCQXU83n-131" value="Name : String" style="text;align=left;verticalAlign=top;spacingLeft=4;spacingRight=4;overflow=hidden;rotatable=0;points=[[0,0.5],[1,0.5]];portConstraint=eastwest;" parent="mvmTcCIGMzBXoCQXU83n-129" vertex="1">
          <mxGeometry y="56" width="90" height="26" as="geometry" />
        </mxCell>
        <mxCell id="mvmTcCIGMzBXoCQXU83n-132" value="attack : Int" style="text;strokeColor=none;fillColor=none;align=left;verticalAlign=top;rounded=0;spacingLeft=4;spacingRight=4;" parent="mvmTcCIGMzBXoCQXU83n-129" vertex="1">
          <mxGeometry y="82" width="90" height="30" as="geometry" />
        </mxCell>
        <mxCell id="mvmTcCIGMzBXoCQXU83n-133" value="Weight : Int" style="text;strokeColor=none;fillColor=none;align=left;verticalAlign=top;rounded=0;spacingLeft=4;spacingRight=4;" parent="mvmTcCIGMzBXoCQXU83n-129" vertex="1">
          <mxGeometry y="112" width="90" height="30" as="geometry" />
        </mxCell>
        <mxCell id="mvmTcCIGMzBXoCQXU83n-134" value="desc : String" style="text;align=left;verticalAlign=top;spacingLeft=4;spacingRight=4;overflow=hidden;rotatable=0;points=[[0,0.5],[1,0.5]];portConstraint=eastwest;" parent="mvmTcCIGMzBXoCQXU83n-129" vertex="1">
          <mxGeometry y="142" width="90" height="26" as="geometry" />
        </mxCell>
        <mxCell id="mvmTcCIGMzBXoCQXU83n-135" value="" style="line;html=1;strokeWidth=1;align=left;verticalAlign=middle;spacingTop=-1;spacingLeft=3;spacingRight=3;rotatable=0;labelPosition=right;points=[];portConstraint=eastwest;" parent="mvmTcCIGMzBXoCQXU83n-129" vertex="1">
          <mxGeometry y="168" width="90" height="28" as="geometry" />
        </mxCell>
        <mxCell id="mvmTcCIGMzBXoCQXU83n-136" value="Dagger" style="swimlane;fontStyle=2;align=center;verticalAlign=top;childLayout=stackLayout;horizontal=1;startSize=26;horizontalStack=0;resizeParent=1;resizeLast=0;collapsible=1;marginBottom=0;rounded=0;shadow=0;strokeWidth=1;" parent="WIyWlLk6GJQsqaUBKTNV-1" vertex="1">
          <mxGeometry x="400" y="660" width="90" height="200" as="geometry">
            <mxRectangle x="230" y="140" width="160" height="26" as="alternateBounds" />
          </mxGeometry>
        </mxCell>
        <mxCell id="mvmTcCIGMzBXoCQXU83n-137" value="wpIdÂ : Int" style="text;strokeColor=none;fillColor=none;align=left;verticalAlign=top;rounded=0;spacingLeft=4;spacingRight=4;" parent="mvmTcCIGMzBXoCQXU83n-136" vertex="1">
          <mxGeometry y="26" width="90" height="30" as="geometry" />
        </mxCell>
        <mxCell id="mvmTcCIGMzBXoCQXU83n-138" value="Name : String" style="text;align=left;verticalAlign=top;spacingLeft=4;spacingRight=4;overflow=hidden;rotatable=0;points=[[0,0.5],[1,0.5]];portConstraint=eastwest;" parent="mvmTcCIGMzBXoCQXU83n-136" vertex="1">
          <mxGeometry y="56" width="90" height="26" as="geometry" />
        </mxCell>
        <mxCell id="mvmTcCIGMzBXoCQXU83n-139" value="attack : Int" style="text;strokeColor=none;fillColor=none;align=left;verticalAlign=top;rounded=0;spacingLeft=4;spacingRight=4;" parent="mvmTcCIGMzBXoCQXU83n-136" vertex="1">
          <mxGeometry y="82" width="90" height="30" as="geometry" />
        </mxCell>
        <mxCell id="mvmTcCIGMzBXoCQXU83n-140" value="Weight : Int" style="text;strokeColor=none;fillColor=none;align=left;verticalAlign=top;rounded=0;spacingLeft=4;spacingRight=4;" parent="mvmTcCIGMzBXoCQXU83n-136" vertex="1">
          <mxGeometry y="112" width="90" height="30" as="geometry" />
        </mxCell>
        <mxCell id="mvmTcCIGMzBXoCQXU83n-141" value="desc : String" style="text;align=left;verticalAlign=top;spacingLeft=4;spacingRight=4;overflow=hidden;rotatable=0;points=[[0,0.5],[1,0.5]];portConstraint=eastwest;" parent="mvmTcCIGMzBXoCQXU83n-136" vertex="1">
          <mxGeometry y="142" width="90" height="26" as="geometry" />
        </mxCell>
        <mxCell id="mvmTcCIGMzBXoCQXU83n-142" value="" style="line;html=1;strokeWidth=1;align=left;verticalAlign=middle;spacingTop=-1;spacingLeft=3;spacingRight=3;rotatable=0;labelPosition=right;points=[];portConstraint=eastwest;" parent="mvmTcCIGMzBXoCQXU83n-136" vertex="1">
          <mxGeometry y="168" width="90" height="28" as="geometry" />
        </mxCell>
        <mxCell id="mvmTcCIGMzBXoCQXU83n-143" value="Mace" style="swimlane;fontStyle=2;align=center;verticalAlign=top;childLayout=stackLayout;horizontal=1;startSize=26;horizontalStack=0;resizeParent=1;resizeLast=0;collapsible=1;marginBottom=0;rounded=0;shadow=0;strokeWidth=1;" parent="WIyWlLk6GJQsqaUBKTNV-1" vertex="1">
          <mxGeometry x="400" y="880" width="90" height="200" as="geometry">
            <mxRectangle x="230" y="140" width="160" height="26" as="alternateBounds" />
          </mxGeometry>
        </mxCell>
        <mxCell id="mvmTcCIGMzBXoCQXU83n-144" value="wpIdÂ : Int" style="text;strokeColor=none;fillColor=none;align=left;verticalAlign=top;rounded=0;spacingLeft=4;spacingRight=4;" parent="mvmTcCIGMzBXoCQXU83n-143" vertex="1">
          <mxGeometry y="26" width="90" height="30" as="geometry" />
        </mxCell>
        <mxCell id="mvmTcCIGMzBXoCQXU83n-145" value="Name : String" style="text;align=left;verticalAlign=top;spacingLeft=4;spacingRight=4;overflow=hidden;rotatable=0;points=[[0,0.5],[1,0.5]];portConstraint=eastwest;" parent="mvmTcCIGMzBXoCQXU83n-143" vertex="1">
          <mxGeometry y="56" width="90" height="26" as="geometry" />
        </mxCell>
        <mxCell id="mvmTcCIGMzBXoCQXU83n-146" value="attack : Int" style="text;strokeColor=none;fillColor=none;align=left;verticalAlign=top;rounded=0;spacingLeft=4;spacingRight=4;" parent="mvmTcCIGMzBXoCQXU83n-143" vertex="1">
          <mxGeometry y="82" width="90" height="30" as="geometry" />
        </mxCell>
        <mxCell id="mvmTcCIGMzBXoCQXU83n-147" value="Weight : Int" style="text;strokeColor=none;fillColor=none;align=left;verticalAlign=top;rounded=0;spacingLeft=4;spacingRight=4;" parent="mvmTcCIGMzBXoCQXU83n-143" vertex="1">
          <mxGeometry y="112" width="90" height="30" as="geometry" />
        </mxCell>
        <mxCell id="mvmTcCIGMzBXoCQXU83n-148" value="desc : String" style="text;align=left;verticalAlign=top;spacingLeft=4;spacingRight=4;overflow=hidden;rotatable=0;points=[[0,0.5],[1,0.5]];portConstraint=eastwest;" parent="mvmTcCIGMzBXoCQXU83n-143" vertex="1">
          <mxGeometry y="142" width="90" height="26" as="geometry" />
        </mxCell>
        <mxCell id="mvmTcCIGMzBXoCQXU83n-149" value="" style="line;html=1;strokeWidth=1;align=left;verticalAlign=middle;spacingTop=-1;spacingLeft=3;spacingRight=3;rotatable=0;labelPosition=right;points=[];portConstraint=eastwest;" parent="mvmTcCIGMzBXoCQXU83n-143" vertex="1">
          <mxGeometry y="168" width="90" height="28" as="geometry" />
        </mxCell>
        <mxCell id="mvmTcCIGMzBXoCQXU83n-150" value="Crossbow" style="swimlane;fontStyle=2;align=center;verticalAlign=top;childLayout=stackLayout;horizontal=1;startSize=26;horizontalStack=0;resizeParent=1;resizeLast=0;collapsible=1;marginBottom=0;rounded=0;shadow=0;strokeWidth=1;" parent="WIyWlLk6GJQsqaUBKTNV-1" vertex="1">
          <mxGeometry x="400" y="1100" width="90" height="200" as="geometry">
            <mxRectangle x="230" y="140" width="160" height="26" as="alternateBounds" />
          </mxGeometry>
        </mxCell>
        <mxCell id="mvmTcCIGMzBXoCQXU83n-151" value="wpIdÂ : Int" style="text;strokeColor=none;fillColor=none;align=left;verticalAlign=top;rounded=0;spacingLeft=4;spacingRight=4;" parent="mvmTcCIGMzBXoCQXU83n-150" vertex="1">
          <mxGeometry y="26" width="90" height="30" as="geometry" />
        </mxCell>
        <mxCell id="mvmTcCIGMzBXoCQXU83n-152" value="Name : String" style="text;align=left;verticalAlign=top;spacingLeft=4;spacingRight=4;overflow=hidden;rotatable=0;points=[[0,0.5],[1,0.5]];portConstraint=eastwest;" parent="mvmTcCIGMzBXoCQXU83n-150" vertex="1">
          <mxGeometry y="56" width="90" height="26" as="geometry" />
        </mxCell>
        <mxCell id="mvmTcCIGMzBXoCQXU83n-153" value="attack : Int" style="text;strokeColor=none;fillColor=none;align=left;verticalAlign=top;rounded=0;spacingLeft=4;spacingRight=4;" parent="mvmTcCIGMzBXoCQXU83n-150" vertex="1">
          <mxGeometry y="82" width="90" height="30" as="geometry" />
        </mxCell>
        <mxCell id="mvmTcCIGMzBXoCQXU83n-154" value="Weight : Int" style="text;strokeColor=none;fillColor=none;align=left;verticalAlign=top;rounded=0;spacingLeft=4;spacingRight=4;" parent="mvmTcCIGMzBXoCQXU83n-150" vertex="1">
          <mxGeometry y="112" width="90" height="30" as="geometry" />
        </mxCell>
        <mxCell id="mvmTcCIGMzBXoCQXU83n-155" value="desc : String" style="text;align=left;verticalAlign=top;spacingLeft=4;spacingRight=4;overflow=hidden;rotatable=0;points=[[0,0.5],[1,0.5]];portConstraint=eastwest;" parent="mvmTcCIGMzBXoCQXU83n-150" vertex="1">
          <mxGeometry y="142" width="90" height="26" as="geometry" />
        </mxCell>
        <mxCell id="mvmTcCIGMzBXoCQXU83n-156" value="" style="line;html=1;strokeWidth=1;align=left;verticalAlign=middle;spacingTop=-1;spacingLeft=3;spacingRight=3;rotatable=0;labelPosition=right;points=[];portConstraint=eastwest;" parent="mvmTcCIGMzBXoCQXU83n-150" vertex="1">
          <mxGeometry y="168" width="90" height="28" as="geometry" />
        </mxCell>
        <mxCell id="mvmTcCIGMzBXoCQXU83n-157" value="Sword" style="swimlane;fontStyle=2;align=center;verticalAlign=top;childLayout=stackLayout;horizontal=1;startSize=26;horizontalStack=0;resizeParent=1;resizeLast=0;collapsible=1;marginBottom=0;rounded=0;shadow=0;strokeWidth=1;" parent="WIyWlLk6GJQsqaUBKTNV-1" vertex="1">
          <mxGeometry x="270" y="661" width="90" height="200" as="geometry">
            <mxRectangle x="230" y="140" width="160" height="26" as="alternateBounds" />
          </mxGeometry>
        </mxCell>
        <mxCell id="mvmTcCIGMzBXoCQXU83n-158" value="wpIdÂ : Int" style="text;strokeColor=none;fillColor=none;align=left;verticalAlign=top;rounded=0;spacingLeft=4;spacingRight=4;" parent="mvmTcCIGMzBXoCQXU83n-157" vertex="1">
          <mxGeometry y="26" width="90" height="30" as="geometry" />
        </mxCell>
        <mxCell id="mvmTcCIGMzBXoCQXU83n-159" value="Name : String" style="text;align=left;verticalAlign=top;spacingLeft=4;spacingRight=4;overflow=hidden;rotatable=0;points=[[0,0.5],[1,0.5]];portConstraint=eastwest;" parent="mvmTcCIGMzBXoCQXU83n-157" vertex="1">
          <mxGeometry y="56" width="90" height="26" as="geometry" />
        </mxCell>
        <mxCell id="mvmTcCIGMzBXoCQXU83n-160" value="attack : Int" style="text;strokeColor=none;fillColor=none;align=left;verticalAlign=top;rounded=0;spacingLeft=4;spacingRight=4;" parent="mvmTcCIGMzBXoCQXU83n-157" vertex="1">
          <mxGeometry y="82" width="90" height="30" as="geometry" />
        </mxCell>
        <mxCell id="mvmTcCIGMzBXoCQXU83n-161" value="Weight : Int" style="text;strokeColor=none;fillColor=none;align=left;verticalAlign=top;rounded=0;spacingLeft=4;spacingRight=4;" parent="mvmTcCIGMzBXoCQXU83n-157" vertex="1">
          <mxGeometry y="112" width="90" height="30" as="geometry" />
        </mxCell>
        <mxCell id="mvmTcCIGMzBXoCQXU83n-162" value="desc : String" style="text;align=left;verticalAlign=top;spacingLeft=4;spacingRight=4;overflow=hidden;rotatable=0;points=[[0,0.5],[1,0.5]];portConstraint=eastwest;" parent="mvmTcCIGMzBXoCQXU83n-157" vertex="1">
          <mxGeometry y="142" width="90" height="26" as="geometry" />
        </mxCell>
        <mxCell id="mvmTcCIGMzBXoCQXU83n-163" value="" style="line;html=1;strokeWidth=1;align=left;verticalAlign=middle;spacingTop=-1;spacingLeft=3;spacingRight=3;rotatable=0;labelPosition=right;points=[];portConstraint=eastwest;" parent="mvmTcCIGMzBXoCQXU83n-157" vertex="1">
          <mxGeometry y="168" width="90" height="28" as="geometry" />
        </mxCell>
        <mxCell id="mvmTcCIGMzBXoCQXU83n-164" value="Axe" style="swimlane;fontStyle=2;align=center;verticalAlign=top;childLayout=stackLayout;horizontal=1;startSize=26;horizontalStack=0;resizeParent=1;resizeLast=0;collapsible=1;marginBottom=0;rounded=0;shadow=0;strokeWidth=1;" parent="WIyWlLk6GJQsqaUBKTNV-1" vertex="1">
          <mxGeometry x="270" y="881" width="90" height="226" as="geometry">
            <mxRectangle x="230" y="140" width="160" height="26" as="alternateBounds" />
          </mxGeometry>
        </mxCell>
        <mxCell id="DISkeAy-tZt9b_RBgKUR-0" value="wpIdÂ : Int" style="text;strokeColor=none;fillColor=none;align=left;verticalAlign=top;rounded=0;spacingLeft=4;spacingRight=4;" vertex="1" parent="mvmTcCIGMzBXoCQXU83n-164">
          <mxGeometry y="26" width="90" height="30" as="geometry" />
        </mxCell>
        <mxCell id="mvmTcCIGMzBXoCQXU83n-165" value="wpIdÂ : Int" style="text;strokeColor=none;fillColor=none;align=left;verticalAlign=top;rounded=0;spacingLeft=4;spacingRight=4;" parent="mvmTcCIGMzBXoCQXU83n-164" vertex="1">
          <mxGeometry y="56" width="90" height="30" as="geometry" />
        </mxCell>
        <mxCell id="mvmTcCIGMzBXoCQXU83n-166" value="Name : String" style="text;align=left;verticalAlign=top;spacingLeft=4;spacingRight=4;overflow=hidden;rotatable=0;points=[[0,0.5],[1,0.5]];portConstraint=eastwest;" parent="mvmTcCIGMzBXoCQXU83n-164" vertex="1">
          <mxGeometry y="86" width="90" height="26" as="geometry" />
        </mxCell>
        <mxCell id="mvmTcCIGMzBXoCQXU83n-167" value="attack : Int" style="text;strokeColor=none;fillColor=none;align=left;verticalAlign=top;rounded=0;spacingLeft=4;spacingRight=4;" parent="mvmTcCIGMzBXoCQXU83n-164" vertex="1">
          <mxGeometry y="112" width="90" height="30" as="geometry" />
        </mxCell>
        <mxCell id="mvmTcCIGMzBXoCQXU83n-168" value="Weight : Int" style="text;strokeColor=none;fillColor=none;align=left;verticalAlign=top;rounded=0;spacingLeft=4;spacingRight=4;" parent="mvmTcCIGMzBXoCQXU83n-164" vertex="1">
          <mxGeometry y="142" width="90" height="30" as="geometry" />
        </mxCell>
        <mxCell id="mvmTcCIGMzBXoCQXU83n-169" value="desc : String" style="text;align=left;verticalAlign=top;spacingLeft=4;spacingRight=4;overflow=hidden;rotatable=0;points=[[0,0.5],[1,0.5]];portConstraint=eastwest;" parent="mvmTcCIGMzBXoCQXU83n-164" vertex="1">
          <mxGeometry y="172" width="90" height="26" as="geometry" />
        </mxCell>
        <mxCell id="mvmTcCIGMzBXoCQXU83n-170" value="" style="line;html=1;strokeWidth=1;align=left;verticalAlign=middle;spacingTop=-1;spacingLeft=3;spacingRight=3;rotatable=0;labelPosition=right;points=[];portConstraint=eastwest;" parent="mvmTcCIGMzBXoCQXU83n-164" vertex="1">
          <mxGeometry y="198" width="90" height="28" as="geometry" />
        </mxCell>
        <mxCell id="mvmTcCIGMzBXoCQXU83n-171" value="Bow" style="swimlane;fontStyle=2;align=center;verticalAlign=top;childLayout=stackLayout;horizontal=1;startSize=26;horizontalStack=0;resizeParent=1;resizeLast=0;collapsible=1;marginBottom=0;rounded=0;shadow=0;strokeWidth=1;" parent="WIyWlLk6GJQsqaUBKTNV-1" vertex="1">
          <mxGeometry x="530" y="880" width="90" height="200" as="geometry">
            <mxRectangle x="230" y="140" width="160" height="26" as="alternateBounds" />
          </mxGeometry>
        </mxCell>
        <mxCell id="mvmTcCIGMzBXoCQXU83n-172" value="wpIdÂ : Int" style="text;strokeColor=none;fillColor=none;align=left;verticalAlign=top;rounded=0;spacingLeft=4;spacingRight=4;" parent="mvmTcCIGMzBXoCQXU83n-171" vertex="1">
          <mxGeometry y="26" width="90" height="30" as="geometry" />
        </mxCell>
        <mxCell id="mvmTcCIGMzBXoCQXU83n-173" value="Name : String" style="text;align=left;verticalAlign=top;spacingLeft=4;spacingRight=4;overflow=hidden;rotatable=0;points=[[0,0.5],[1,0.5]];portConstraint=eastwest;" parent="mvmTcCIGMzBXoCQXU83n-171" vertex="1">
          <mxGeometry y="56" width="90" height="26" as="geometry" />
        </mxCell>
        <mxCell id="mvmTcCIGMzBXoCQXU83n-174" value="attack : Int" style="text;strokeColor=none;fillColor=none;align=left;verticalAlign=top;rounded=0;spacingLeft=4;spacingRight=4;" parent="mvmTcCIGMzBXoCQXU83n-171" vertex="1">
          <mxGeometry y="82" width="90" height="30" as="geometry" />
        </mxCell>
        <mxCell id="mvmTcCIGMzBXoCQXU83n-175" value="Weight : Int" style="text;strokeColor=none;fillColor=none;align=left;verticalAlign=top;rounded=0;spacingLeft=4;spacingRight=4;" parent="mvmTcCIGMzBXoCQXU83n-171" vertex="1">
          <mxGeometry y="112" width="90" height="30" as="geometry" />
        </mxCell>
        <mxCell id="mvmTcCIGMzBXoCQXU83n-176" value="desc : String" style="text;align=left;verticalAlign=top;spacingLeft=4;spacingRight=4;overflow=hidden;rotatable=0;points=[[0,0.5],[1,0.5]];portConstraint=eastwest;" parent="mvmTcCIGMzBXoCQXU83n-171" vertex="1">
          <mxGeometry y="142" width="90" height="26" as="geometry" />
        </mxCell>
        <mxCell id="mvmTcCIGMzBXoCQXU83n-177" value="" style="line;html=1;strokeWidth=1;align=left;verticalAlign=middle;spacingTop=-1;spacingLeft=3;spacingRight=3;rotatable=0;labelPosition=right;points=[];portConstraint=eastwest;" parent="mvmTcCIGMzBXoCQXU83n-171" vertex="1">
          <mxGeometry y="168" width="90" height="28" as="geometry" />
        </mxCell>
        <mxCell id="mvmTcCIGMzBXoCQXU83n-122" value="Staff" style="swimlane;fontStyle=2;align=center;verticalAlign=top;childLayout=stackLayout;horizontal=1;startSize=26;horizontalStack=0;resizeParent=1;resizeLast=0;collapsible=1;marginBottom=0;rounded=0;shadow=0;strokeWidth=1;" parent="WIyWlLk6GJQsqaUBKTNV-1" vertex="1">
          <mxGeometry x="270" y="1101" width="90" height="250" as="geometry">
            <mxRectangle x="230" y="140" width="160" height="26" as="alternateBounds" />
          </mxGeometry>
        </mxCell>
        <mxCell id="mvmTcCIGMzBXoCQXU83n-123" value="wpIdÂ : Int" style="text;strokeColor=none;fillColor=none;align=left;verticalAlign=top;rounded=0;spacingLeft=4;spacingRight=4;" parent="mvmTcCIGMzBXoCQXU83n-122" vertex="1">
          <mxGeometry y="26" width="90" height="30" as="geometry" />
        </mxCell>
        <mxCell id="mvmTcCIGMzBXoCQXU83n-124" value="Name : String" style="text;align=left;verticalAlign=top;spacingLeft=4;spacingRight=4;overflow=hidden;rotatable=0;points=[[0,0.5],[1,0.5]];portConstraint=eastwest;" parent="mvmTcCIGMzBXoCQXU83n-122" vertex="1">
          <mxGeometry y="56" width="90" height="26" as="geometry" />
        </mxCell>
        <mxCell id="mvmTcCIGMzBXoCQXU83n-125" value="attack : Int" style="text;strokeColor=none;fillColor=none;align=left;verticalAlign=top;rounded=0;spacingLeft=4;spacingRight=4;" parent="mvmTcCIGMzBXoCQXU83n-122" vertex="1">
          <mxGeometry y="82" width="90" height="30" as="geometry" />
        </mxCell>
        <mxCell id="mvmTcCIGMzBXoCQXU83n-126" value="Weight : Int" style="text;strokeColor=none;fillColor=none;align=left;verticalAlign=top;rounded=0;spacingLeft=4;spacingRight=4;" parent="mvmTcCIGMzBXoCQXU83n-122" vertex="1">
          <mxGeometry y="112" width="90" height="30" as="geometry" />
        </mxCell>
        <mxCell id="mvmTcCIGMzBXoCQXU83n-180" value="spIdÂ : []" style="text;strokeColor=none;fillColor=none;align=left;verticalAlign=top;rounded=0;spacingLeft=4;spacingRight=4;" parent="mvmTcCIGMzBXoCQXU83n-122" vertex="1">
          <mxGeometry y="142" width="90" height="24" as="geometry" />
        </mxCell>
        <mxCell id="mvmTcCIGMzBXoCQXU83n-181" value="spells : []" style="text;strokeColor=none;fillColor=none;align=left;verticalAlign=top;rounded=0;spacingLeft=4;spacingRight=4;" parent="mvmTcCIGMzBXoCQXU83n-122" vertex="1">
          <mxGeometry y="166" width="90" height="30" as="geometry" />
        </mxCell>
        <mxCell id="mvmTcCIGMzBXoCQXU83n-127" value="desc : String" style="text;align=left;verticalAlign=top;spacingLeft=4;spacingRight=4;overflow=hidden;rotatable=0;points=[[0,0.5],[1,0.5]];portConstraint=eastwest;" parent="mvmTcCIGMzBXoCQXU83n-122" vertex="1">
          <mxGeometry y="196" width="90" height="26" as="geometry" />
        </mxCell>
        <mxCell id="mvmTcCIGMzBXoCQXU83n-128" value="" style="line;html=1;strokeWidth=1;align=left;verticalAlign=middle;spacingTop=-1;spacingLeft=3;spacingRight=3;rotatable=0;labelPosition=right;points=[];portConstraint=eastwest;" parent="mvmTcCIGMzBXoCQXU83n-122" vertex="1">
          <mxGeometry y="222" width="90" height="28" as="geometry" />
        </mxCell>
        <mxCell id="mvmTcCIGMzBXoCQXU83n-182" value="Wand" style="swimlane;fontStyle=2;align=center;verticalAlign=top;childLayout=stackLayout;horizontal=1;startSize=26;horizontalStack=0;resizeParent=1;resizeLast=0;collapsible=1;marginBottom=0;rounded=0;shadow=0;strokeWidth=1;" parent="WIyWlLk6GJQsqaUBKTNV-1" vertex="1">
          <mxGeometry x="400" y="1320" width="90" height="250" as="geometry">
            <mxRectangle x="230" y="140" width="160" height="26" as="alternateBounds" />
          </mxGeometry>
        </mxCell>
        <mxCell id="mvmTcCIGMzBXoCQXU83n-183" value="wpIdÂ : Int" style="text;strokeColor=none;fillColor=none;align=left;verticalAlign=top;rounded=0;spacingLeft=4;spacingRight=4;" parent="mvmTcCIGMzBXoCQXU83n-182" vertex="1">
          <mxGeometry y="26" width="90" height="30" as="geometry" />
        </mxCell>
        <mxCell id="mvmTcCIGMzBXoCQXU83n-184" value="Name : String" style="text;align=left;verticalAlign=top;spacingLeft=4;spacingRight=4;overflow=hidden;rotatable=0;points=[[0,0.5],[1,0.5]];portConstraint=eastwest;" parent="mvmTcCIGMzBXoCQXU83n-182" vertex="1">
          <mxGeometry y="56" width="90" height="26" as="geometry" />
        </mxCell>
        <mxCell id="mvmTcCIGMzBXoCQXU83n-185" value="attack : Int" style="text;strokeColor=none;fillColor=none;align=left;verticalAlign=top;rounded=0;spacingLeft=4;spacingRight=4;" parent="mvmTcCIGMzBXoCQXU83n-182" vertex="1">
          <mxGeometry y="82" width="90" height="30" as="geometry" />
        </mxCell>
        <mxCell id="mvmTcCIGMzBXoCQXU83n-186" value="Weight : Int" style="text;strokeColor=none;fillColor=none;align=left;verticalAlign=top;rounded=0;spacingLeft=4;spacingRight=4;" parent="mvmTcCIGMzBXoCQXU83n-182" vertex="1">
          <mxGeometry y="112" width="90" height="30" as="geometry" />
        </mxCell>
        <mxCell id="mvmTcCIGMzBXoCQXU83n-188" value="spIdÂ : int" style="text;strokeColor=none;fillColor=none;align=left;verticalAlign=top;rounded=0;spacingLeft=4;spacingRight=4;" parent="mvmTcCIGMzBXoCQXU83n-182" vertex="1">
          <mxGeometry y="142" width="90" height="24" as="geometry" />
        </mxCell>
        <mxCell id="mvmTcCIGMzBXoCQXU83n-189" value="spells : Dict" style="text;strokeColor=none;fillColor=none;align=left;verticalAlign=top;rounded=0;spacingLeft=4;spacingRight=4;" parent="mvmTcCIGMzBXoCQXU83n-182" vertex="1">
          <mxGeometry y="166" width="90" height="30" as="geometry" />
        </mxCell>
        <mxCell id="mvmTcCIGMzBXoCQXU83n-187" value="desc : String" style="text;align=left;verticalAlign=top;spacingLeft=4;spacingRight=4;overflow=hidden;rotatable=0;points=[[0,0.5],[1,0.5]];portConstraint=eastwest;" parent="mvmTcCIGMzBXoCQXU83n-182" vertex="1">
          <mxGeometry y="196" width="90" height="26" as="geometry" />
        </mxCell>
        <mxCell id="mvmTcCIGMzBXoCQXU83n-190" value="" style="line;html=1;strokeWidth=1;align=left;verticalAlign=middle;spacingTop=-1;spacingLeft=3;spacingRight=3;rotatable=0;labelPosition=right;points=[];portConstraint=eastwest;" parent="mvmTcCIGMzBXoCQXU83n-182" vertex="1">
          <mxGeometry y="222" width="90" height="28" as="geometry" />
        </mxCell>
        <mxCell id="mvmTcCIGMzBXoCQXU83n-191" value="Shield" style="swimlane;fontStyle=2;align=center;verticalAlign=top;childLayout=stackLayout;horizontal=1;startSize=26;horizontalStack=0;resizeParent=1;resizeLast=0;collapsible=1;marginBottom=0;rounded=0;shadow=0;strokeWidth=1;" parent="WIyWlLk6GJQsqaUBKTNV-1" vertex="1">
          <mxGeometry x="270" y="1371" width="90" height="200" as="geometry">
            <mxRectangle x="230" y="140" width="160" height="26" as="alternateBounds" />
          </mxGeometry>
        </mxCell>
        <mxCell id="mvmTcCIGMzBXoCQXU83n-192" value="wpIdÂ : Int" style="text;strokeColor=none;fillColor=none;align=left;verticalAlign=top;rounded=0;spacingLeft=4;spacingRight=4;" parent="mvmTcCIGMzBXoCQXU83n-191" vertex="1">
          <mxGeometry y="26" width="90" height="30" as="geometry" />
        </mxCell>
        <mxCell id="mvmTcCIGMzBXoCQXU83n-193" value="Name : String" style="text;align=left;verticalAlign=top;spacingLeft=4;spacingRight=4;overflow=hidden;rotatable=0;points=[[0,0.5],[1,0.5]];portConstraint=eastwest;" parent="mvmTcCIGMzBXoCQXU83n-191" vertex="1">
          <mxGeometry y="56" width="90" height="26" as="geometry" />
        </mxCell>
        <mxCell id="mvmTcCIGMzBXoCQXU83n-194" value="defence : Int" style="text;strokeColor=none;fillColor=none;align=left;verticalAlign=top;rounded=0;spacingLeft=4;spacingRight=4;" parent="mvmTcCIGMzBXoCQXU83n-191" vertex="1">
          <mxGeometry y="82" width="90" height="30" as="geometry" />
        </mxCell>
        <mxCell id="mvmTcCIGMzBXoCQXU83n-195" value="Weight : Int" style="text;strokeColor=none;fillColor=none;align=left;verticalAlign=top;rounded=0;spacingLeft=4;spacingRight=4;" parent="mvmTcCIGMzBXoCQXU83n-191" vertex="1">
          <mxGeometry y="112" width="90" height="30" as="geometry" />
        </mxCell>
        <mxCell id="mvmTcCIGMzBXoCQXU83n-196" value="desc : String" style="text;align=left;verticalAlign=top;spacingLeft=4;spacingRight=4;overflow=hidden;rotatable=0;points=[[0,0.5],[1,0.5]];portConstraint=eastwest;" parent="mvmTcCIGMzBXoCQXU83n-191" vertex="1">
          <mxGeometry y="142" width="90" height="26" as="geometry" />
        </mxCell>
        <mxCell id="mvmTcCIGMzBXoCQXU83n-197" value="" style="line;html=1;strokeWidth=1;align=left;verticalAlign=middle;spacingTop=-1;spacingLeft=3;spacingRight=3;rotatable=0;labelPosition=right;points=[];portConstraint=eastwest;" parent="mvmTcCIGMzBXoCQXU83n-191" vertex="1">
          <mxGeometry y="168" width="90" height="28" as="geometry" />
        </mxCell>
        <mxCell id="mvmTcCIGMzBXoCQXU83n-198" style="edgeStyle=orthogonalEdgeStyle;rounded=0;orthogonalLoop=1;jettySize=auto;html=1;endArrow=block;endFill=0;endSize=10;entryX=0;entryY=0.5;entryDx=0;entryDy=0;exitX=0;exitY=0.5;exitDx=0;exitDy=0;" parent="WIyWlLk6GJQsqaUBKTNV-1" source="mvmTcCIGMzBXoCQXU83n-172" target="mvmTcCIGMzBXoCQXU83n-7" edge="1">
          <mxGeometry relative="1" as="geometry">
            <mxPoint x="467" y="920" as="sourcePoint" />
            <mxPoint x="653.5" y="770" as="targetPoint" />
            <Array as="points">
              <mxPoint x="510" y="921" />
              <mxPoint x="510" y="870" />
              <mxPoint x="640" y="870" />
              <mxPoint x="640" y="702" />
            </Array>
          </mxGeometry>
        </mxCell>
        <mxCell id="mvmTcCIGMzBXoCQXU83n-199" style="edgeStyle=orthogonalEdgeStyle;rounded=0;orthogonalLoop=1;jettySize=auto;html=1;endArrow=block;endFill=0;endSize=10;entryX=0;entryY=0.5;entryDx=0;entryDy=0;exitX=0;exitY=0.5;exitDx=0;exitDy=0;" parent="WIyWlLk6GJQsqaUBKTNV-1" source="mvmTcCIGMzBXoCQXU83n-130" target="mvmTcCIGMzBXoCQXU83n-7" edge="1">
          <mxGeometry relative="1" as="geometry">
            <mxPoint x="470" y="931" as="sourcePoint" />
            <mxPoint x="677" y="712" as="targetPoint" />
            <Array as="points">
              <mxPoint x="510" y="1141" />
              <mxPoint x="510" y="870" />
              <mxPoint x="640" y="870" />
              <mxPoint x="640" y="702" />
            </Array>
          </mxGeometry>
        </mxCell>
        <mxCell id="mvmTcCIGMzBXoCQXU83n-201" style="edgeStyle=orthogonalEdgeStyle;rounded=0;orthogonalLoop=1;jettySize=auto;html=1;endArrow=block;endFill=0;endSize=10;entryX=0;entryY=0.5;entryDx=0;entryDy=0;exitX=0;exitY=0.5;exitDx=0;exitDy=0;" parent="WIyWlLk6GJQsqaUBKTNV-1" source="mvmTcCIGMzBXoCQXU83n-115" target="mvmTcCIGMzBXoCQXU83n-7" edge="1">
          <mxGeometry relative="1" as="geometry">
            <mxPoint x="480" y="941" as="sourcePoint" />
            <mxPoint x="687" y="722" as="targetPoint" />
            <Array as="points">
              <mxPoint x="510" y="701" />
              <mxPoint x="510" y="870" />
              <mxPoint x="640" y="870" />
              <mxPoint x="640" y="702" />
            </Array>
          </mxGeometry>
        </mxCell>
        <mxCell id="mvmTcCIGMzBXoCQXU83n-202" style="edgeStyle=orthogonalEdgeStyle;rounded=0;orthogonalLoop=1;jettySize=auto;html=1;endArrow=block;endFill=0;endSize=10;entryX=0;entryY=0.5;entryDx=0;entryDy=0;exitX=1;exitY=0.5;exitDx=0;exitDy=0;" parent="WIyWlLk6GJQsqaUBKTNV-1" source="mvmTcCIGMzBXoCQXU83n-137" target="mvmTcCIGMzBXoCQXU83n-7" edge="1">
          <mxGeometry relative="1" as="geometry">
            <mxPoint x="460" y="701" as="sourcePoint" />
            <mxPoint x="667" y="702" as="targetPoint" />
            <Array as="points">
              <mxPoint x="510" y="701" />
              <mxPoint x="510" y="870" />
              <mxPoint x="640" y="870" />
              <mxPoint x="640" y="702" />
            </Array>
          </mxGeometry>
        </mxCell>
        <mxCell id="W3pktpJ0qgTOmIyloTbi-42" value="Message()" style="text;align=left;verticalAlign=top;spacingLeft=4;spacingRight=4;overflow=hidden;rotatable=0;points=[[0,0.5],[1,0.5]];portConstraint=eastwest;" parent="WIyWlLk6GJQsqaUBKTNV-1" vertex="1">
          <mxGeometry x="340" y="300" width="160" height="26" as="geometry" />
        </mxCell>
        <mxCell id="mvmTcCIGMzBXoCQXU83n-203" style="edgeStyle=orthogonalEdgeStyle;rounded=0;orthogonalLoop=1;jettySize=auto;html=1;endArrow=block;endFill=0;endSize=10;entryX=0;entryY=0.5;entryDx=0;entryDy=0;exitX=1;exitY=0.5;exitDx=0;exitDy=0;" parent="WIyWlLk6GJQsqaUBKTNV-1" source="mvmTcCIGMzBXoCQXU83n-144" target="mvmTcCIGMzBXoCQXU83n-7" edge="1">
          <mxGeometry relative="1" as="geometry">
            <mxPoint x="460" y="701.5" as="sourcePoint" />
            <mxPoint x="667" y="702.5" as="targetPoint" />
            <Array as="points">
              <mxPoint x="510" y="921" />
              <mxPoint x="510" y="870" />
              <mxPoint x="640" y="870" />
              <mxPoint x="640" y="702" />
            </Array>
          </mxGeometry>
        </mxCell>
        <mxCell id="mvmTcCIGMzBXoCQXU83n-205" style="edgeStyle=orthogonalEdgeStyle;rounded=0;orthogonalLoop=1;jettySize=auto;html=1;endArrow=block;endFill=0;endSize=10;entryX=0;entryY=0.5;entryDx=0;entryDy=0;exitX=1;exitY=0.5;exitDx=0;exitDy=0;" parent="WIyWlLk6GJQsqaUBKTNV-1" source="mvmTcCIGMzBXoCQXU83n-151" edge="1">
          <mxGeometry relative="1" as="geometry">
            <mxPoint x="460" y="1141" as="sourcePoint" />
            <mxPoint x="667" y="702" as="targetPoint" />
            <Array as="points">
              <mxPoint x="510" y="1141" />
              <mxPoint x="510" y="870" />
              <mxPoint x="640" y="870" />
              <mxPoint x="640" y="702" />
            </Array>
          </mxGeometry>
        </mxCell>
        <mxCell id="mvmTcCIGMzBXoCQXU83n-206" style="edgeStyle=orthogonalEdgeStyle;rounded=0;orthogonalLoop=1;jettySize=auto;html=1;endArrow=block;endFill=0;endSize=10;entryX=0;entryY=0.5;entryDx=0;entryDy=0;exitX=1;exitY=0.5;exitDx=0;exitDy=0;" parent="WIyWlLk6GJQsqaUBKTNV-1" source="mvmTcCIGMzBXoCQXU83n-183" target="mvmTcCIGMzBXoCQXU83n-7" edge="1">
          <mxGeometry relative="1" as="geometry">
            <mxPoint x="430" y="1242" as="sourcePoint" />
            <mxPoint x="687" y="722" as="targetPoint" />
            <Array as="points">
              <mxPoint x="510" y="1361" />
              <mxPoint x="510" y="870" />
              <mxPoint x="640" y="870" />
              <mxPoint x="640" y="702" />
            </Array>
          </mxGeometry>
        </mxCell>
        <mxCell id="mvmTcCIGMzBXoCQXU83n-207" style="edgeStyle=orthogonalEdgeStyle;rounded=0;orthogonalLoop=1;jettySize=auto;html=1;endArrow=block;endFill=0;endSize=10;entryX=0;entryY=0.5;entryDx=0;entryDy=0;exitX=1;exitY=0.5;exitDx=0;exitDy=0;" parent="WIyWlLk6GJQsqaUBKTNV-1" source="mvmTcCIGMzBXoCQXU83n-158" edge="1">
          <mxGeometry relative="1" as="geometry">
            <mxPoint x="420" y="701.5" as="sourcePoint" />
            <mxPoint x="667" y="702.5" as="targetPoint" />
            <Array as="points">
              <mxPoint x="380" y="701" />
              <mxPoint x="380" y="870" />
              <mxPoint x="640" y="870" />
              <mxPoint x="640" y="702" />
            </Array>
          </mxGeometry>
        </mxCell>
        <mxCell id="mvmTcCIGMzBXoCQXU83n-210" style="edgeStyle=orthogonalEdgeStyle;rounded=0;orthogonalLoop=1;jettySize=auto;html=1;endArrow=block;endFill=0;endSize=10;entryX=0;entryY=0.5;entryDx=0;entryDy=0;exitX=1;exitY=0.5;exitDx=0;exitDy=0;" parent="WIyWlLk6GJQsqaUBKTNV-1" source="mvmTcCIGMzBXoCQXU83n-165" edge="1">
          <mxGeometry relative="1" as="geometry">
            <mxPoint x="420" y="921" as="sourcePoint" />
            <mxPoint x="667" y="702" as="targetPoint" />
            <Array as="points">
              <mxPoint x="380" y="921" />
              <mxPoint x="380" y="870" />
              <mxPoint x="640" y="870" />
              <mxPoint x="640" y="702" />
            </Array>
          </mxGeometry>
        </mxCell>
        <mxCell id="mvmTcCIGMzBXoCQXU83n-212" style="edgeStyle=orthogonalEdgeStyle;rounded=0;orthogonalLoop=1;jettySize=auto;html=1;endArrow=block;endFill=0;endSize=10;entryX=0;entryY=0.5;entryDx=0;entryDy=0;exitX=1;exitY=0.5;exitDx=0;exitDy=0;" parent="WIyWlLk6GJQsqaUBKTNV-1" source="mvmTcCIGMzBXoCQXU83n-123" target="mvmTcCIGMzBXoCQXU83n-7" edge="1">
          <mxGeometry relative="1" as="geometry">
            <mxPoint x="220" y="921" as="sourcePoint" />
            <mxPoint x="667" y="702" as="targetPoint" />
            <Array as="points">
              <mxPoint x="380" y="1141" />
              <mxPoint x="380" y="870" />
              <mxPoint x="640" y="870" />
              <mxPoint x="640" y="702" />
            </Array>
          </mxGeometry>
        </mxCell>
        <mxCell id="mvmTcCIGMzBXoCQXU83n-213" style="edgeStyle=orthogonalEdgeStyle;rounded=0;orthogonalLoop=1;jettySize=auto;html=1;endArrow=block;endFill=0;endSize=10;entryX=0;entryY=0.5;entryDx=0;entryDy=0;exitX=1;exitY=0.5;exitDx=0;exitDy=0;" parent="WIyWlLk6GJQsqaUBKTNV-1" source="mvmTcCIGMzBXoCQXU83n-192" target="mvmTcCIGMzBXoCQXU83n-7" edge="1">
          <mxGeometry relative="1" as="geometry">
            <mxPoint x="220" y="921" as="sourcePoint" />
            <mxPoint x="667" y="702" as="targetPoint" />
            <Array as="points">
              <mxPoint x="380" y="1411" />
              <mxPoint x="380" y="870" />
              <mxPoint x="640" y="870" />
              <mxPoint x="640" y="702" />
            </Array>
          </mxGeometry>
        </mxCell>
        <mxCell id="mvmTcCIGMzBXoCQXU83n-221" value="Ingredients" style="swimlane;fontStyle=2;align=center;verticalAlign=top;childLayout=stackLayout;horizontal=1;startSize=26;horizontalStack=0;resizeParent=1;resizeLast=0;collapsible=1;marginBottom=0;rounded=0;shadow=0;strokeWidth=1;" parent="WIyWlLk6GJQsqaUBKTNV-1" vertex="1">
          <mxGeometry x="1240" y="694" width="90" height="196" as="geometry">
            <mxRectangle x="230" y="140" width="160" height="26" as="alternateBounds" />
          </mxGeometry>
        </mxCell>
        <mxCell id="mvmTcCIGMzBXoCQXU83n-222" value="itemId : Int" style="text;strokeColor=none;fillColor=none;align=left;verticalAlign=top;rounded=0;spacingLeft=4;spacingRight=4;" parent="mvmTcCIGMzBXoCQXU83n-221" vertex="1">
          <mxGeometry y="26" width="90" height="30" as="geometry" />
        </mxCell>
        <mxCell id="mvmTcCIGMzBXoCQXU83n-223" value="Name : String" style="text;align=left;verticalAlign=top;spacingLeft=4;spacingRight=4;overflow=hidden;rotatable=0;points=[[0,0.5],[1,0.5]];portConstraint=eastwest;" parent="mvmTcCIGMzBXoCQXU83n-221" vertex="1">
          <mxGeometry y="56" width="90" height="26" as="geometry" />
        </mxCell>
        <mxCell id="mvmTcCIGMzBXoCQXU83n-224" value="Weight : Int" style="text;strokeColor=none;fillColor=none;align=left;verticalAlign=top;rounded=0;spacingLeft=4;spacingRight=4;" parent="mvmTcCIGMzBXoCQXU83n-221" vertex="1">
          <mxGeometry y="82" width="90" height="30" as="geometry" />
        </mxCell>
        <mxCell id="mvmTcCIGMzBXoCQXU83n-225" value="Recover : Int" style="text;strokeColor=none;fillColor=none;align=left;verticalAlign=top;rounded=0;spacingLeft=4;spacingRight=4;" parent="mvmTcCIGMzBXoCQXU83n-221" vertex="1">
          <mxGeometry y="112" width="90" height="30" as="geometry" />
        </mxCell>
        <mxCell id="mvmTcCIGMzBXoCQXU83n-226" value="desc : String" style="text;align=left;verticalAlign=top;spacingLeft=4;spacingRight=4;overflow=hidden;rotatable=0;points=[[0,0.5],[1,0.5]];portConstraint=eastwest;" parent="mvmTcCIGMzBXoCQXU83n-221" vertex="1">
          <mxGeometry y="142" width="90" height="26" as="geometry" />
        </mxCell>
        <mxCell id="mvmTcCIGMzBXoCQXU83n-227" value="" style="line;html=1;strokeWidth=1;align=left;verticalAlign=middle;spacingTop=-1;spacingLeft=3;spacingRight=3;rotatable=0;labelPosition=right;points=[];portConstraint=eastwest;" parent="mvmTcCIGMzBXoCQXU83n-221" vertex="1">
          <mxGeometry y="168" width="90" height="28" as="geometry" />
        </mxCell>
        <mxCell id="mvmTcCIGMzBXoCQXU83n-235" style="edgeStyle=orthogonalEdgeStyle;rounded=0;orthogonalLoop=1;jettySize=auto;html=1;endArrow=block;endFill=0;endSize=10;entryX=0.5;entryY=1;entryDx=0;entryDy=0;exitX=0.25;exitY=1;exitDx=0;exitDy=0;" parent="WIyWlLk6GJQsqaUBKTNV-1" source="mvmTcCIGMzBXoCQXU83n-221" target="eRDqk77Hg42XvIJXzPui-15" edge="1">
          <mxGeometry relative="1" as="geometry">
            <mxPoint x="1520" y="914" as="sourcePoint" />
            <mxPoint x="910" y="860" as="targetPoint" />
            <Array as="points">
              <mxPoint x="1285" y="890" />
              <mxPoint x="1285" y="914" />
              <mxPoint x="940" y="914" />
            </Array>
          </mxGeometry>
        </mxCell>
        <mxCell id="mvmTcCIGMzBXoCQXU83n-236" style="edgeStyle=orthogonalEdgeStyle;rounded=0;orthogonalLoop=1;jettySize=auto;html=1;endArrow=block;endFill=0;endSize=10;exitX=1;exitY=0.5;exitDx=0;exitDy=0;entryX=0.5;entryY=1;entryDx=0;entryDy=0;" parent="WIyWlLk6GJQsqaUBKTNV-1" target="eRDqk77Hg42XvIJXzPui-15" edge="1">
          <mxGeometry relative="1" as="geometry">
            <mxPoint x="827" y="696" as="sourcePoint" />
            <mxPoint x="900" y="850" as="targetPoint" />
            <Array as="points">
              <mxPoint x="840" y="696" />
              <mxPoint x="840" y="914" />
              <mxPoint x="940" y="914" />
            </Array>
          </mxGeometry>
        </mxCell>
        <mxCell id="ptEhDMpME4YLXCn7Hwwd-9" value="TalkingMode" style="swimlane;fontStyle=0;childLayout=stackLayout;horizontal=1;startSize=30;horizontalStack=0;resizeParent=1;resizeParentMax=0;resizeLast=0;collapsible=1;marginBottom=0;align=left;verticalAlign=top;html=0;" parent="WIyWlLk6GJQsqaUBKTNV-1" vertex="1">
          <mxGeometry x="1310" y="120" width="130" height="168" as="geometry" />
        </mxCell>
        <mxCell id="ptEhDMpME4YLXCn7Hwwd-10" value="Location : String" style="text;strokeColor=none;fillColor=none;align=left;verticalAlign=middle;spacingLeft=4;spacingRight=4;overflow=hidden;points=[[0,0.5],[1,0.5]];portConstraint=eastwest;rotatable=0;html=0;" parent="ptEhDMpME4YLXCn7Hwwd-9" vertex="1">
          <mxGeometry y="30" width="130" height="30" as="geometry" />
        </mxCell>
        <mxCell id="ptEhDMpME4YLXCn7Hwwd-11" value="Locations: List" style="text;strokeColor=none;fillColor=none;align=left;verticalAlign=middle;spacingLeft=4;spacingRight=4;overflow=hidden;points=[[0,0.5],[1,0.5]];portConstraint=eastwest;rotatable=0;html=0;" parent="ptEhDMpME4YLXCn7Hwwd-9" vertex="1">
          <mxGeometry y="60" width="130" height="30" as="geometry" />
        </mxCell>
        <mxCell id="ptEhDMpME4YLXCn7Hwwd-12" value="Chapter1Switch : List" style="text;align=left;verticalAlign=top;spacingLeft=4;spacingRight=4;overflow=hidden;rotatable=0;points=[[0,0.5],[1,0.5]];portConstraint=eastwest;" parent="ptEhDMpME4YLXCn7Hwwd-9" vertex="1">
          <mxGeometry y="90" width="130" height="26" as="geometry" />
        </mxCell>
        <mxCell id="ptEhDMpME4YLXCn7Hwwd-13" value="Chapter2Switch : List" style="text;align=left;verticalAlign=top;spacingLeft=4;spacingRight=4;overflow=hidden;rotatable=0;points=[[0,0.5],[1,0.5]];portConstraint=eastwest;" parent="ptEhDMpME4YLXCn7Hwwd-9" vertex="1">
          <mxGeometry y="116" width="130" height="26" as="geometry" />
        </mxCell>
        <mxCell id="ptEhDMpME4YLXCn7Hwwd-14" value="Chapter3Switch : List" style="text;align=left;verticalAlign=top;spacingLeft=4;spacingRight=4;overflow=hidden;rotatable=0;points=[[0,0.5],[1,0.5]];portConstraint=eastwest;" parent="ptEhDMpME4YLXCn7Hwwd-9" vertex="1">
          <mxGeometry y="142" width="130" height="26" as="geometry" />
        </mxCell>
        <mxCell id="ptEhDMpME4YLXCn7Hwwd-18" value="" style="endArrow=none;html=1;rounded=0;entryX=0;entryY=0.033;entryDx=0;entryDy=0;entryPerimeter=0;exitX=0.993;exitY=0;exitDx=0;exitDy=0;exitPerimeter=0;" parent="ptEhDMpME4YLXCn7Hwwd-9" edge="1">
          <mxGeometry width="50" height="50" relative="1" as="geometry">
            <mxPoint x="129.09000000000015" y="168" as="sourcePoint" />
            <mxPoint y="168.99" as="targetPoint" />
            <Array as="points" />
          </mxGeometry>
        </mxCell>
        <mxCell id="ptEhDMpME4YLXCn7Hwwd-19" value="MovingMode" style="swimlane;fontStyle=0;childLayout=stackLayout;horizontal=1;startSize=30;horizontalStack=0;resizeParent=1;resizeParentMax=0;resizeLast=0;collapsible=1;marginBottom=0;align=left;verticalAlign=top;html=0;" parent="WIyWlLk6GJQsqaUBKTNV-1" vertex="1">
          <mxGeometry x="1510" y="120" width="140" height="194" as="geometry" />
        </mxCell>
        <mxCell id="ptEhDMpME4YLXCn7Hwwd-20" value="Location : String" style="text;strokeColor=none;fillColor=none;align=left;verticalAlign=middle;spacingLeft=4;spacingRight=4;overflow=hidden;points=[[0,0.5],[1,0.5]];portConstraint=eastwest;rotatable=0;html=0;" parent="ptEhDMpME4YLXCn7Hwwd-19" vertex="1">
          <mxGeometry y="30" width="140" height="30" as="geometry" />
        </mxCell>
        <mxCell id="ptEhDMpME4YLXCn7Hwwd-21" value="Locations: List" style="text;strokeColor=none;fillColor=none;align=left;verticalAlign=middle;spacingLeft=4;spacingRight=4;overflow=hidden;points=[[0,0.5],[1,0.5]];portConstraint=eastwest;rotatable=0;html=0;" parent="ptEhDMpME4YLXCn7Hwwd-19" vertex="1">
          <mxGeometry y="60" width="140" height="30" as="geometry" />
        </mxCell>
        <mxCell id="ptEhDMpME4YLXCn7Hwwd-22" value="Chapter1Switch : List" style="text;align=left;verticalAlign=top;spacingLeft=4;spacingRight=4;overflow=hidden;rotatable=0;points=[[0,0.5],[1,0.5]];portConstraint=eastwest;" parent="ptEhDMpME4YLXCn7Hwwd-19" vertex="1">
          <mxGeometry y="90" width="140" height="26" as="geometry" />
        </mxCell>
        <mxCell id="ptEhDMpME4YLXCn7Hwwd-23" value="Chapter2Switch : List" style="text;align=left;verticalAlign=top;spacingLeft=4;spacingRight=4;overflow=hidden;rotatable=0;points=[[0,0.5],[1,0.5]];portConstraint=eastwest;" parent="ptEhDMpME4YLXCn7Hwwd-19" vertex="1">
          <mxGeometry y="116" width="140" height="26" as="geometry" />
        </mxCell>
        <mxCell id="ptEhDMpME4YLXCn7Hwwd-24" value="Chapter3Switch : List" style="text;align=left;verticalAlign=top;spacingLeft=4;spacingRight=4;overflow=hidden;rotatable=0;points=[[0,0.5],[1,0.5]];portConstraint=eastwest;" parent="ptEhDMpME4YLXCn7Hwwd-19" vertex="1">
          <mxGeometry y="142" width="140" height="26" as="geometry" />
        </mxCell>
        <mxCell id="ptEhDMpME4YLXCn7Hwwd-26" value="PickupSwitch : List" style="text;align=left;verticalAlign=top;spacingLeft=4;spacingRight=4;overflow=hidden;rotatable=0;points=[[0,0.5],[1,0.5]];portConstraint=eastwest;" parent="ptEhDMpME4YLXCn7Hwwd-19" vertex="1">
          <mxGeometry y="168" width="140" height="26" as="geometry" />
        </mxCell>
        <mxCell id="ptEhDMpME4YLXCn7Hwwd-28" value="" style="endArrow=none;html=1;rounded=0;entryX=0;entryY=0.033;entryDx=0;entryDy=0;entryPerimeter=0;exitX=0.993;exitY=0;exitDx=0;exitDy=0;exitPerimeter=0;" parent="ptEhDMpME4YLXCn7Hwwd-19" edge="1">
          <mxGeometry width="50" height="50" relative="1" as="geometry">
            <mxPoint x="139.01999999999998" y="194" as="sourcePoint" />
            <mxPoint y="194.99" as="targetPoint" />
            <Array as="points" />
          </mxGeometry>
        </mxCell>
        <mxCell id="ptEhDMpME4YLXCn7Hwwd-49" value="Objectives" style="swimlane;fontStyle=0;childLayout=stackLayout;horizontal=1;startSize=30;horizontalStack=0;resizeParent=1;resizeParentMax=0;resizeLast=0;collapsible=1;marginBottom=0;align=left;verticalAlign=top;html=0;" parent="WIyWlLk6GJQsqaUBKTNV-1" vertex="1">
          <mxGeometry x="1340" y="330" width="130" height="198" as="geometry" />
        </mxCell>
        <mxCell id="ptEhDMpME4YLXCn7Hwwd-50" value="Location : String" style="text;strokeColor=none;fillColor=none;align=left;verticalAlign=middle;spacingLeft=4;spacingRight=4;overflow=hidden;points=[[0,0.5],[1,0.5]];portConstraint=eastwest;rotatable=0;html=0;" parent="ptEhDMpME4YLXCn7Hwwd-49" vertex="1">
          <mxGeometry y="30" width="130" height="30" as="geometry" />
        </mxCell>
        <mxCell id="ptEhDMpME4YLXCn7Hwwd-51" value="Locations: List" style="text;strokeColor=none;fillColor=none;align=left;verticalAlign=middle;spacingLeft=4;spacingRight=4;overflow=hidden;points=[[0,0.5],[1,0.5]];portConstraint=eastwest;rotatable=0;html=0;" parent="ptEhDMpME4YLXCn7Hwwd-49" vertex="1">
          <mxGeometry y="60" width="130" height="30" as="geometry" />
        </mxCell>
        <mxCell id="ptEhDMpME4YLXCn7Hwwd-52" value="Chapter1Switch : List" style="text;align=left;verticalAlign=top;spacingLeft=4;spacingRight=4;overflow=hidden;rotatable=0;points=[[0,0.5],[1,0.5]];portConstraint=eastwest;" parent="ptEhDMpME4YLXCn7Hwwd-49" vertex="1">
          <mxGeometry y="90" width="130" height="26" as="geometry" />
        </mxCell>
        <mxCell id="ptEhDMpME4YLXCn7Hwwd-53" value="Chapter2Switch : List" style="text;align=left;verticalAlign=top;spacingLeft=4;spacingRight=4;overflow=hidden;rotatable=0;points=[[0,0.5],[1,0.5]];portConstraint=eastwest;" parent="ptEhDMpME4YLXCn7Hwwd-49" vertex="1">
          <mxGeometry y="116" width="130" height="26" as="geometry" />
        </mxCell>
        <mxCell id="ptEhDMpME4YLXCn7Hwwd-54" value="Chapter3Switch : List" style="text;align=left;verticalAlign=top;spacingLeft=4;spacingRight=4;overflow=hidden;rotatable=0;points=[[0,0.5],[1,0.5]];portConstraint=eastwest;" parent="ptEhDMpME4YLXCn7Hwwd-49" vertex="1">
          <mxGeometry y="142" width="130" height="26" as="geometry" />
        </mxCell>
        <mxCell id="ptEhDMpME4YLXCn7Hwwd-56" value="Pickup()" style="text;strokeColor=none;fillColor=none;align=left;verticalAlign=middle;spacingLeft=4;spacingRight=4;overflow=hidden;points=[[0,0.5],[1,0.5]];portConstraint=eastwest;rotatable=0;html=0;" parent="ptEhDMpME4YLXCn7Hwwd-49" vertex="1">
          <mxGeometry y="168" width="130" height="30" as="geometry" />
        </mxCell>
        <mxCell id="ptEhDMpME4YLXCn7Hwwd-57" value="" style="endArrow=none;html=1;rounded=0;entryX=0;entryY=0.033;entryDx=0;entryDy=0;entryPerimeter=0;exitX=0.993;exitY=0;exitDx=0;exitDy=0;exitPerimeter=0;" parent="ptEhDMpME4YLXCn7Hwwd-49" source="ptEhDMpME4YLXCn7Hwwd-56" target="ptEhDMpME4YLXCn7Hwwd-56" edge="1">
          <mxGeometry width="50" height="50" relative="1" as="geometry">
            <mxPoint x="310" y="169" as="sourcePoint" />
            <mxPoint x="1220" y="287" as="targetPoint" />
            <Array as="points" />
          </mxGeometry>
        </mxCell>
      </root>
    </mxGraphModel>
  </diagram>
</mxfile>
